<?xml version="1.0" encoding="UTF-8"?>
<svg width="154px" height="154px" viewBox="0 0 154 154" version="1.1" xmlns="http://www.w3.org/2000/svg" xmlns:xlink="http://www.w3.org/1999/xlink">
    <!-- Generator: Sketch 47.1 (45422) - http://www.bohemiancoding.com/sketch -->
    <title>ICON/play-button</title>
    <desc>Created with Sketch.</desc>
    <defs>
        <polygon id="path-1" points="7.14832614e-21 0.0245661408 7.14832614e-21 153.357068 153.332541 153.357068 153.332541 0.0245661408"></polygon>
    </defs>
    <g id="Exporting-Board---FA" stroke="none" stroke-width="1" fill="none" fill-rule="evenodd">
        <g id="Symbols" transform="translate(-42.000000, -308.000000)">
            <g id="ICON/play-button" transform="translate(41.906250, 308.421875)">
                <g id="Play-Button" transform="translate(0.737305, 0.000000)">
                    <g id="Group-3" transform="translate(0.000000, 0.106809)">
                        <mask id="mask-2" fill="white">
                            <use xlink:href="#path-1"></use>
                        </mask>
                        <g id="Clip-2"></g>
                        <path d="M144.101527,105.175824 C140.415815,113.88975 135.138248,121.716894 128.415327,128.439815 C121.692539,135.162735 113.865131,140.440302 105.151337,144.126014 C96.1321483,147.940689 86.5484524,149.874992 76.6663497,149.874992 C66.7842471,149.874992 57.2004193,147.940689 48.1813623,144.126014 C39.4671732,140.440302 31.6401608,135.162735 24.9172401,128.439815 C18.1944513,121.716894 12.9168847,113.88975 9.23104058,105.175824 C5.41636593,96.1567672 3.48206255,86.5729394 3.48206255,76.6907049 C3.48206255,66.8087341 5.41636593,57.2247745 9.23104058,48.2058493 C12.9168847,39.4916603 18.1944513,31.6646478 24.9172401,24.9417271 C31.6401608,18.2189383 39.4671732,12.9413718 48.1813623,9.2555276 C57.2004193,5.44072109 66.7842471,3.50654957 76.6663497,3.50654957 C86.5484524,3.50654957 96.1321483,5.44072109 105.151337,9.2555276 C113.865131,12.9412399 121.692539,18.2189383 128.415327,24.9417271 C135.138248,31.6646478 140.415815,39.4916603 144.101527,48.2058493 C147.916334,57.2247745 149.850373,66.8087341 149.850373,76.6907049 C149.850373,86.5729394 147.916334,96.1566353 144.101527,105.175824 M130.877612,22.4794429 C123.838219,15.4401821 115.639748,9.91286636 106.509793,6.05124837 C97.054928,2.0520969 87.01393,0.0245661408 76.6663497,0.0245661408 C66.3186376,0.0245661408 56.2777715,2.0520969 46.8229061,6.05124837 C37.692952,9.91286636 29.4943486,15.4401821 22.4549559,22.4794429 C15.4158269,29.5189675 9.8885112,37.717439 6.02689321,46.8473931 C2.02760988,56.3021267 -5.27453372e-05,66.3431247 -5.27453372e-05,76.6907049 C-5.27453372e-05,87.038417 2.02760988,97.079415 6.02689321,106.53428 C9.8885112,115.664235 15.4158269,123.862706 22.4549559,130.902099 C29.4943486,137.94136 37.692952,143.468543 46.8229061,147.330293 C56.2777715,151.329313 66.3186376,153.357107 76.6663497,153.357107 C87.01393,153.357107 97.054928,151.329313 106.509793,147.330425 C115.639748,143.468543 123.838219,137.94136 130.877612,130.902099 C137.916873,123.862706 143.44432,115.664235 147.305806,106.53428 C151.304826,97.079415 153.33262,87.038417 153.33262,76.6907049 C153.33262,66.3431247 151.304826,56.3021267 147.305806,46.8473931 C143.44432,37.7173071 137.916873,29.5188356 130.877612,22.4794429" id="Fill-1" fill="#FEFEFE" mask="url(#mask-2)"></path>
                    </g>
                    <path d="M116.563978,71.9841725 L76.6663497,48.9493607 L59.6238038,39.10985 C55.0385198,36.4625615 51.2868759,38.6285488 51.2868759,43.9232576 L51.2868759,109.671903 C51.2868759,114.966743 55.0385198,117.132599 59.6238038,114.48531 L76.6663497,104.6458 L116.563978,81.6109877 C121.14913,78.9635674 121.14913,74.631461 116.563978,71.9841725" id="Fill-4" fill="#FEFEFE"></path>
                </g>
            </g>
        </g>
    </g>
</svg>