<?xml version="1.0" encoding="utf-8"?>
<!-- Generator: Adobe Illustrator 15.0.0, SVG Export Plug-In . SVG Version: 6.00 Build 0)  -->
<!DOCTYPE svg PUBLIC "-//W3C//DTD SVG 1.0//EN" "http://www.w3.org/TR/2001/REC-SVG-20010904/DTD/svg10.dtd">
<svg version="1.0" id="Layer_1" xmlns="http://www.w3.org/2000/svg" xmlns:xlink="http://www.w3.org/1999/xlink" x="0px" y="0px"
	 width="75.374px" height="39.992px" viewBox="0 0 75.374 39.992" enable-background="new 0 0 75.374 39.992" xml:space="preserve">
<polygon fill="#9D9D9C" points="13.722,38.221 13.722,35.31 14.181,35.31 14.181,36.808 15.553,35.305 16.062,35.305 14.912,36.595 
	16.128,38.221 15.615,38.221 14.629,36.878 14.181,37.342 14.181,38.221 "/>
<g>
	<path fill="#9D9D9C" d="M17.446,38.261c-0.167,0-0.319-0.028-0.456-0.087c-0.137-0.06-0.254-0.14-0.352-0.24
		c-0.097-0.103-0.172-0.22-0.225-0.354c-0.054-0.135-0.081-0.276-0.081-0.427c0-0.151,0.027-0.294,0.081-0.43
		c0.053-0.136,0.128-0.254,0.225-0.357c0.097-0.103,0.215-0.184,0.352-0.242s0.29-0.089,0.46-0.089c0.167,0,0.318,0.031,0.454,0.091
		c0.135,0.061,0.251,0.141,0.347,0.24c0.096,0.101,0.169,0.217,0.22,0.35s0.076,0.271,0.076,0.417c0,0.032-0.001,0.062-0.004,0.092
		c-0.002,0.029-0.005,0.053-0.008,0.072h-1.72c0.008,0.095,0.031,0.182,0.068,0.259c0.037,0.076,0.084,0.143,0.144,0.198
		c0.059,0.057,0.126,0.1,0.201,0.13c0.076,0.03,0.154,0.045,0.236,0.045c0.061,0,0.12-0.007,0.178-0.022
		c0.059-0.015,0.113-0.037,0.163-0.065s0.093-0.063,0.131-0.105c0.039-0.04,0.068-0.086,0.09-0.136l0.386,0.111
		c-0.074,0.162-0.196,0.294-0.367,0.396C17.872,38.21,17.673,38.261,17.446,38.261 M18.099,36.985
		c-0.008-0.091-0.031-0.174-0.068-0.251c-0.037-0.076-0.084-0.141-0.142-0.195c-0.057-0.053-0.125-0.095-0.201-0.124
		c-0.076-0.03-0.157-0.045-0.242-0.045s-0.165,0.015-0.24,0.045c-0.075,0.029-0.142,0.071-0.199,0.124
		c-0.057,0.055-0.104,0.119-0.14,0.195c-0.035,0.077-0.058,0.16-0.065,0.251H18.099z"/>
	<path fill="#9D9D9C" d="M20.094,38.261c-0.167,0-0.319-0.028-0.456-0.087c-0.137-0.06-0.254-0.14-0.351-0.24
		c-0.097-0.103-0.172-0.22-0.226-0.354c-0.053-0.135-0.08-0.276-0.08-0.427c0-0.151,0.027-0.294,0.08-0.43
		c0.054-0.136,0.129-0.254,0.226-0.357c0.097-0.103,0.214-0.184,0.351-0.242c0.137-0.059,0.29-0.089,0.459-0.089
		c0.167,0,0.318,0.031,0.454,0.091c0.136,0.061,0.251,0.141,0.347,0.24c0.096,0.101,0.169,0.217,0.22,0.35s0.076,0.271,0.076,0.417
		c0,0.032-0.001,0.062-0.004,0.092c-0.003,0.029-0.006,0.053-0.008,0.072h-1.721c0.008,0.095,0.031,0.182,0.068,0.259
		c0.037,0.076,0.085,0.143,0.144,0.198c0.059,0.057,0.126,0.1,0.201,0.13s0.154,0.045,0.236,0.045c0.06,0,0.12-0.007,0.179-0.022
		c0.059-0.015,0.113-0.037,0.162-0.065c0.049-0.028,0.093-0.063,0.131-0.105c0.038-0.04,0.068-0.086,0.09-0.136l0.386,0.111
		c-0.074,0.162-0.196,0.294-0.367,0.396S20.322,38.261,20.094,38.261 M20.747,36.985c-0.008-0.091-0.031-0.174-0.068-0.251
		c-0.037-0.076-0.084-0.141-0.142-0.195c-0.057-0.053-0.125-0.095-0.201-0.124c-0.077-0.03-0.157-0.045-0.242-0.045
		s-0.165,0.015-0.24,0.045c-0.075,0.029-0.142,0.071-0.199,0.124c-0.058,0.055-0.104,0.119-0.139,0.195
		c-0.036,0.077-0.058,0.16-0.066,0.251H20.747z"/>
	<path fill="#9D9D9C" d="M22.989,38.261c-0.172,0-0.325-0.04-0.456-0.123c-0.131-0.081-0.235-0.188-0.312-0.319v1.277H21.77v-3.022
		h0.398v0.386c0.082-0.129,0.188-0.23,0.318-0.308c0.129-0.077,0.277-0.116,0.441-0.116c0.147,0,0.283,0.031,0.406,0.091
		c0.123,0.061,0.23,0.141,0.32,0.243c0.09,0.101,0.161,0.218,0.211,0.353c0.051,0.134,0.076,0.275,0.076,0.424
		c0,0.155-0.023,0.302-0.07,0.437c-0.047,0.136-0.112,0.253-0.197,0.354c-0.085,0.1-0.186,0.179-0.302,0.238
		C23.257,38.233,23.128,38.261,22.989,38.261 M22.841,37.876c0.096,0,0.183-0.021,0.261-0.062c0.078-0.042,0.145-0.096,0.201-0.165
		c0.056-0.068,0.099-0.146,0.129-0.233c0.03-0.088,0.045-0.179,0.045-0.271c0-0.099-0.017-0.192-0.051-0.28
		c-0.034-0.087-0.081-0.164-0.14-0.229s-0.129-0.118-0.211-0.156c-0.082-0.038-0.171-0.058-0.267-0.058
		c-0.058,0-0.118,0.011-0.181,0.033c-0.063,0.021-0.122,0.052-0.176,0.09c-0.055,0.039-0.103,0.083-0.144,0.134
		s-0.07,0.105-0.086,0.166v0.562c0.027,0.065,0.063,0.128,0.107,0.185c0.043,0.058,0.092,0.106,0.146,0.148
		c0.054,0.041,0.112,0.074,0.175,0.099S22.776,37.876,22.841,37.876"/>
	<path fill="#9D9D9C" d="M24.554,35.224h0.452v0.496h-0.452V35.224z M24.554,36.074h0.452v2.147h-0.452V36.074z"/>
	<path fill="#9D9D9C" d="M27.678,38.221h-0.452v-1.203c0-0.202-0.032-0.35-0.096-0.441c-0.065-0.092-0.16-0.138-0.286-0.138
		c-0.065,0-0.131,0.012-0.197,0.036c-0.065,0.025-0.127,0.061-0.185,0.105s-0.109,0.099-0.154,0.161
		c-0.045,0.061-0.08,0.128-0.104,0.202v1.277h-0.452v-2.147h0.411v0.432c0.082-0.146,0.201-0.26,0.357-0.344
		c0.156-0.083,0.329-0.126,0.517-0.126c0.129,0,0.234,0.023,0.316,0.071c0.082,0.046,0.147,0.11,0.195,0.19
		c0.048,0.081,0.081,0.174,0.101,0.279c0.019,0.105,0.029,0.217,0.029,0.334V38.221z"/>
	<path fill="#9D9D9C" d="M29.259,38.242c-0.145,0-0.278-0.03-0.398-0.089c-0.121-0.059-0.224-0.138-0.31-0.24
		c-0.086-0.101-0.153-0.217-0.201-0.349s-0.072-0.27-0.072-0.415c0-0.153,0.024-0.297,0.074-0.433s0.118-0.254,0.205-0.354
		s0.192-0.18,0.314-0.238c0.122-0.059,0.257-0.089,0.404-0.089c0.172,0,0.324,0.042,0.454,0.124c0.13,0.083,0.237,0.188,0.322,0.32
		v-0.406h0.398v2.086c0,0.156-0.029,0.294-0.086,0.415c-0.058,0.12-0.138,0.222-0.24,0.306c-0.103,0.083-0.224,0.147-0.364,0.19
		c-0.139,0.044-0.291,0.066-0.452,0.066c-0.238,0-0.436-0.041-0.593-0.121c-0.157-0.081-0.29-0.193-0.396-0.34l0.255-0.237
		c0.082,0.114,0.188,0.202,0.318,0.262c0.13,0.061,0.269,0.091,0.417,0.091c0.093,0,0.181-0.012,0.265-0.036
		c0.083-0.025,0.157-0.063,0.22-0.116c0.062-0.051,0.113-0.117,0.149-0.196c0.037-0.08,0.056-0.174,0.056-0.283v-0.328
		c-0.077,0.131-0.182,0.232-0.316,0.304C29.548,38.207,29.407,38.242,29.259,38.242 M29.407,37.876c0.068,0,0.134-0.012,0.197-0.035
		c0.063-0.023,0.122-0.055,0.175-0.095c0.053-0.039,0.099-0.085,0.138-0.135c0.038-0.051,0.065-0.105,0.082-0.163v-0.562
		c-0.028-0.068-0.063-0.13-0.107-0.187c-0.043-0.056-0.094-0.104-0.149-0.146c-0.057-0.042-0.116-0.073-0.179-0.097
		s-0.126-0.035-0.189-0.035c-0.099,0-0.187,0.021-0.265,0.063c-0.078,0.043-0.145,0.099-0.199,0.169
		c-0.055,0.069-0.097,0.148-0.127,0.236c-0.03,0.087-0.045,0.178-0.045,0.27c0,0.099,0.017,0.192,0.051,0.278
		c0.034,0.087,0.081,0.161,0.141,0.226c0.061,0.064,0.131,0.116,0.212,0.154C29.223,37.857,29.311,37.876,29.407,37.876"/>
	<path fill="#9D9D9C" d="M32.54,38.221v-1.746h-0.288v-0.349h0.288v-0.086c0-0.266,0.062-0.475,0.185-0.628s0.29-0.23,0.501-0.23
		c0.087,0,0.173,0.012,0.259,0.035c0.084,0.023,0.165,0.056,0.242,0.097l-0.099,0.337c-0.041-0.024-0.09-0.045-0.146-0.062
		c-0.056-0.018-0.11-0.025-0.163-0.025c-0.106,0-0.188,0.04-0.244,0.119c-0.056,0.08-0.084,0.194-0.084,0.346v0.098h0.55v0.349
		h-0.55v1.746H32.54z"/>
	<path fill="#9D9D9C" d="M34.622,38.261c-0.104,0-0.201-0.016-0.29-0.051c-0.089-0.034-0.166-0.081-0.23-0.141
		c-0.064-0.062-0.115-0.132-0.152-0.214c-0.037-0.083-0.055-0.171-0.055-0.268c0-0.101,0.021-0.192,0.065-0.274
		c0.043-0.082,0.106-0.154,0.187-0.214c0.081-0.061,0.176-0.106,0.288-0.14c0.111-0.033,0.233-0.05,0.367-0.05
		c0.101,0,0.201,0.01,0.3,0.027c0.098,0.018,0.188,0.042,0.267,0.071v-0.147c0-0.158-0.045-0.282-0.136-0.372
		c-0.09-0.088-0.22-0.133-0.39-0.133c-0.115,0-0.228,0.021-0.339,0.063s-0.225,0.104-0.343,0.183l-0.139-0.287
		c0.276-0.187,0.564-0.28,0.862-0.28c0.296,0,0.525,0.076,0.69,0.227c0.164,0.15,0.246,0.367,0.246,0.648v0.776
		c0,0.096,0.039,0.145,0.119,0.148v0.386c-0.045,0.008-0.082,0.014-0.113,0.016c-0.031,0.003-0.062,0.005-0.092,0.005
		c-0.088,0-0.156-0.022-0.204-0.066c-0.048-0.043-0.077-0.1-0.088-0.168l-0.013-0.136c-0.096,0.126-0.214,0.223-0.355,0.29
		C34.935,38.229,34.783,38.261,34.622,38.261 M34.745,37.929c0.109,0,0.212-0.02,0.311-0.06c0.097-0.039,0.173-0.095,0.228-0.166
		c0.058-0.049,0.086-0.102,0.086-0.156v-0.283c-0.077-0.03-0.157-0.054-0.244-0.069c-0.087-0.017-0.17-0.024-0.252-0.024
		c-0.162,0-0.294,0.034-0.396,0.104c-0.103,0.069-0.154,0.162-0.154,0.276c0,0.107,0.04,0.196,0.119,0.27
		C34.52,37.893,34.622,37.929,34.745,37.929"/>
	<path fill="#9D9D9C" d="M39.857,38.221h-0.452v-1.203c0-0.2-0.032-0.347-0.099-0.439c-0.065-0.093-0.161-0.14-0.287-0.14
		c-0.129,0-0.246,0.047-0.352,0.142s-0.182,0.217-0.228,0.368v1.272h-0.452v-1.203c0-0.202-0.032-0.35-0.098-0.441
		c-0.066-0.092-0.16-0.138-0.283-0.138c-0.129,0-0.246,0.047-0.354,0.14c-0.106,0.093-0.184,0.215-0.229,0.365v1.277h-0.452v-2.147
		h0.41v0.432c0.086-0.151,0.197-0.267,0.336-0.348c0.138-0.081,0.296-0.122,0.474-0.122s0.317,0.048,0.421,0.141
		c0.103,0.093,0.166,0.21,0.19,0.349c0.091-0.159,0.204-0.279,0.341-0.363c0.137-0.083,0.293-0.126,0.469-0.126
		c0.125,0,0.23,0.024,0.314,0.072c0.083,0.049,0.149,0.112,0.198,0.191c0.05,0.079,0.083,0.172,0.103,0.277s0.029,0.217,0.029,0.334
		V38.221z"/>
	<path fill="#9D9D9C" d="M40.583,35.224h0.451v0.496h-0.451V35.224z M40.583,36.074h0.451v2.147h-0.451V36.074z"/>
	<path fill="#9D9D9C" d="M41.787,35.223h0.451V37.6c0,0.08,0.021,0.143,0.062,0.188c0.041,0.044,0.098,0.067,0.172,0.067
		c0.029,0,0.064-0.006,0.105-0.017c0.039-0.011,0.076-0.023,0.112-0.037l0.065,0.354c-0.065,0.03-0.144,0.054-0.234,0.071
		c-0.09,0.019-0.171,0.026-0.242,0.026c-0.156,0-0.277-0.042-0.363-0.127s-0.129-0.205-0.129-0.361V35.223z"/>
	<path fill="#9D9D9C" d="M43.224,35.224h0.451v0.496h-0.451V35.224z M43.224,36.074h0.451v2.147h-0.451V36.074z"/>
	<path fill="#9D9D9C" d="M45.396,38.261c-0.168,0-0.319-0.028-0.456-0.087c-0.137-0.06-0.254-0.14-0.351-0.24
		c-0.098-0.103-0.174-0.22-0.227-0.354c-0.053-0.135-0.08-0.276-0.08-0.427c0-0.151,0.027-0.294,0.08-0.43s0.129-0.254,0.227-0.357
		c0.097-0.103,0.214-0.184,0.351-0.242s0.29-0.089,0.46-0.089c0.167,0,0.318,0.031,0.453,0.091c0.137,0.061,0.252,0.141,0.348,0.24
		c0.096,0.101,0.169,0.217,0.219,0.35c0.051,0.133,0.076,0.271,0.076,0.417c0,0.032-0.001,0.062-0.004,0.092
		c-0.002,0.029-0.006,0.053-0.008,0.072h-1.721c0.008,0.095,0.031,0.182,0.067,0.259c0.037,0.076,0.085,0.143,0.144,0.198
		c0.06,0.057,0.126,0.1,0.202,0.13c0.075,0.03,0.153,0.045,0.235,0.045c0.061,0,0.12-0.007,0.18-0.022
		c0.058-0.015,0.112-0.037,0.162-0.065c0.049-0.028,0.092-0.063,0.131-0.105c0.038-0.04,0.068-0.086,0.09-0.136l0.387,0.111
		c-0.074,0.162-0.197,0.294-0.368,0.396S45.623,38.261,45.396,38.261 M46.048,36.985c-0.008-0.091-0.031-0.174-0.068-0.251
		c-0.037-0.076-0.083-0.141-0.141-0.195c-0.058-0.053-0.125-0.095-0.201-0.124c-0.077-0.03-0.158-0.045-0.242-0.045
		c-0.085,0-0.166,0.015-0.24,0.045c-0.076,0.029-0.143,0.071-0.199,0.124c-0.058,0.055-0.104,0.119-0.14,0.195
		c-0.036,0.077-0.058,0.16-0.065,0.251H46.048z"/>
	<path fill="#9D9D9C" d="M47.851,38.261c-0.173,0-0.344-0.027-0.516-0.084c-0.172-0.055-0.318-0.136-0.441-0.239l0.182-0.288
		c0.128,0.094,0.256,0.164,0.381,0.212c0.126,0.048,0.255,0.072,0.387,0.072c0.134,0,0.24-0.026,0.318-0.078
		c0.078-0.053,0.116-0.126,0.116-0.222c0-0.091-0.044-0.157-0.132-0.197c-0.087-0.041-0.225-0.087-0.41-0.136
		c-0.134-0.035-0.249-0.069-0.344-0.103c-0.098-0.033-0.175-0.071-0.234-0.115c-0.061-0.044-0.104-0.095-0.132-0.151
		c-0.027-0.058-0.041-0.127-0.041-0.21c0-0.109,0.021-0.206,0.063-0.291c0.043-0.086,0.102-0.157,0.177-0.216
		s0.163-0.104,0.265-0.134c0.102-0.029,0.211-0.046,0.328-0.046c0.162,0,0.312,0.025,0.452,0.074c0.14,0.05,0.264,0.121,0.374,0.214
		l-0.193,0.271c-0.2-0.159-0.412-0.238-0.637-0.238c-0.115,0-0.211,0.023-0.289,0.071c-0.078,0.049-0.117,0.124-0.117,0.229
		c0,0.044,0.008,0.081,0.024,0.111c0.017,0.029,0.044,0.056,0.08,0.077c0.037,0.022,0.085,0.042,0.144,0.06
		c0.059,0.019,0.133,0.037,0.22,0.06c0.146,0.036,0.271,0.072,0.376,0.107s0.192,0.077,0.261,0.124
		c0.068,0.049,0.119,0.104,0.151,0.169c0.033,0.064,0.05,0.142,0.05,0.232c0,0.205-0.077,0.367-0.231,0.486
		C48.327,38.203,48.117,38.261,47.851,38.261"/>
	<path fill="#9D9D9C" d="M50.392,37.146c0-0.151,0.027-0.294,0.078-0.428c0.053-0.134,0.127-0.252,0.225-0.354
		c0.098-0.101,0.214-0.182,0.351-0.24c0.138-0.059,0.29-0.089,0.46-0.089c0.222,0,0.412,0.049,0.572,0.146s0.281,0.227,0.359,0.389
		l-0.439,0.139c-0.052-0.09-0.121-0.161-0.209-0.211c-0.088-0.051-0.185-0.076-0.291-0.076c-0.091,0-0.175,0.018-0.252,0.053
		c-0.079,0.036-0.146,0.086-0.204,0.15s-0.103,0.141-0.136,0.229c-0.033,0.087-0.049,0.184-0.049,0.292
		c0,0.104,0.017,0.199,0.051,0.289c0.034,0.089,0.081,0.165,0.141,0.231c0.059,0.066,0.127,0.117,0.205,0.154
		c0.077,0.036,0.16,0.056,0.248,0.056c0.055,0,0.109-0.008,0.164-0.022c0.055-0.016,0.104-0.036,0.15-0.064
		c0.045-0.027,0.084-0.059,0.119-0.094c0.033-0.036,0.059-0.074,0.075-0.115l0.444,0.131c-0.072,0.162-0.191,0.294-0.357,0.396
		c-0.168,0.103-0.365,0.153-0.592,0.153c-0.167,0-0.319-0.029-0.456-0.089c-0.137-0.061-0.254-0.143-0.351-0.245
		c-0.098-0.103-0.173-0.221-0.227-0.354C50.419,37.438,50.392,37.295,50.392,37.146"/>
	<path fill="#9D9D9C" d="M53.037,35.223h0.452V37.6c0,0.08,0.021,0.143,0.062,0.188c0.041,0.044,0.099,0.067,0.172,0.067
		c0.03,0,0.065-0.006,0.105-0.017c0.039-0.011,0.077-0.023,0.113-0.037l0.064,0.354c-0.064,0.03-0.144,0.054-0.233,0.071
		c-0.091,0.019-0.171,0.026-0.242,0.026c-0.157,0-0.276-0.042-0.364-0.127c-0.086-0.085-0.129-0.205-0.129-0.361V35.223z"/>
	<path fill="#9D9D9C" d="M55.439,38.261c-0.17,0-0.322-0.029-0.457-0.089c-0.137-0.061-0.252-0.142-0.348-0.243
		c-0.096-0.101-0.17-0.22-0.222-0.354c-0.052-0.136-0.077-0.277-0.077-0.426c0-0.147,0.025-0.289,0.077-0.425
		s0.126-0.254,0.224-0.354c0.098-0.103,0.213-0.183,0.35-0.243c0.135-0.06,0.286-0.091,0.453-0.091s0.318,0.031,0.454,0.091
		c0.136,0.061,0.251,0.141,0.349,0.243c0.098,0.101,0.172,0.219,0.224,0.354s0.078,0.277,0.078,0.425
		c0,0.148-0.026,0.29-0.078,0.426c-0.052,0.135-0.126,0.254-0.224,0.354c-0.098,0.102-0.213,0.183-0.349,0.243
		C55.757,38.232,55.606,38.261,55.439,38.261 M54.798,37.154c0,0.104,0.016,0.2,0.05,0.287c0.032,0.087,0.077,0.163,0.136,0.229
		c0.057,0.063,0.125,0.114,0.203,0.151c0.078,0.036,0.162,0.056,0.252,0.056s0.175-0.02,0.253-0.056
		c0.077-0.037,0.146-0.088,0.203-0.154s0.103-0.142,0.136-0.229c0.032-0.088,0.049-0.184,0.049-0.288
		c0-0.101-0.017-0.196-0.049-0.284c-0.033-0.09-0.078-0.168-0.136-0.232c-0.058-0.066-0.126-0.118-0.203-0.154
		c-0.078-0.037-0.163-0.056-0.253-0.056c-0.088,0-0.171,0.02-0.248,0.058c-0.078,0.038-0.146,0.091-0.204,0.156
		c-0.057,0.065-0.103,0.144-0.138,0.231C54.816,36.957,54.798,37.051,54.798,37.154"/>
	<path fill="#9D9D9C" d="M57.931,38.261c-0.172,0-0.344-0.027-0.516-0.084c-0.17-0.055-0.317-0.136-0.441-0.239l0.182-0.288
		c0.128,0.094,0.256,0.164,0.382,0.212c0.125,0.048,0.255,0.072,0.386,0.072c0.135,0,0.24-0.026,0.318-0.078
		c0.078-0.053,0.117-0.126,0.117-0.222c0-0.091-0.044-0.157-0.132-0.197c-0.088-0.041-0.224-0.087-0.411-0.136
		c-0.133-0.035-0.248-0.069-0.344-0.103s-0.174-0.071-0.234-0.115s-0.104-0.095-0.131-0.151c-0.028-0.058-0.043-0.127-0.043-0.21
		c0-0.109,0.021-0.206,0.064-0.291c0.043-0.086,0.102-0.157,0.178-0.216c0.074-0.059,0.162-0.104,0.264-0.134
		c0.102-0.029,0.211-0.046,0.329-0.046c0.161,0,0.312,0.025,0.452,0.074c0.139,0.05,0.264,0.121,0.373,0.214l-0.193,0.271
		c-0.199-0.159-0.412-0.238-0.637-0.238c-0.114,0-0.211,0.023-0.289,0.071c-0.078,0.049-0.117,0.124-0.117,0.229
		c0,0.044,0.008,0.081,0.025,0.111c0.016,0.029,0.043,0.056,0.08,0.077c0.037,0.022,0.084,0.042,0.143,0.06
		c0.06,0.019,0.133,0.037,0.221,0.06c0.145,0.036,0.27,0.072,0.375,0.107s0.192,0.077,0.261,0.124
		c0.069,0.049,0.12,0.104,0.152,0.169s0.05,0.142,0.05,0.232c0,0.205-0.078,0.367-0.232,0.486S58.197,38.261,57.931,38.261"/>
	<path fill="#9D9D9C" d="M60.367,38.261c-0.167,0-0.318-0.028-0.456-0.087c-0.137-0.06-0.254-0.14-0.351-0.24
		c-0.098-0.103-0.173-0.22-0.227-0.354c-0.053-0.135-0.08-0.276-0.08-0.427c0-0.151,0.027-0.294,0.08-0.43
		c0.054-0.136,0.129-0.254,0.227-0.357c0.097-0.103,0.214-0.184,0.351-0.242c0.138-0.059,0.29-0.089,0.46-0.089
		c0.167,0,0.318,0.031,0.454,0.091c0.136,0.061,0.251,0.141,0.347,0.24c0.096,0.101,0.169,0.217,0.219,0.35
		c0.051,0.133,0.076,0.271,0.076,0.417c0,0.032-0.001,0.062-0.004,0.092c-0.002,0.029-0.005,0.053-0.008,0.072h-1.721
		c0.009,0.095,0.031,0.182,0.068,0.259c0.036,0.076,0.084,0.143,0.144,0.198c0.059,0.057,0.126,0.1,0.201,0.13
		s0.153,0.045,0.235,0.045c0.061,0,0.12-0.007,0.18-0.022c0.059-0.015,0.112-0.037,0.162-0.065c0.049-0.028,0.092-0.063,0.131-0.105
		c0.038-0.04,0.068-0.086,0.09-0.136l0.387,0.111c-0.074,0.162-0.197,0.294-0.368,0.396S60.593,38.261,60.367,38.261 M61.019,36.985
		c-0.008-0.091-0.031-0.174-0.067-0.251c-0.038-0.076-0.084-0.141-0.142-0.195c-0.058-0.053-0.125-0.095-0.201-0.124
		c-0.076-0.03-0.158-0.045-0.242-0.045c-0.086,0-0.165,0.015-0.24,0.045c-0.076,0.029-0.143,0.071-0.199,0.124
		c-0.058,0.055-0.104,0.119-0.14,0.195c-0.036,0.077-0.058,0.16-0.065,0.251H61.019z"/>
	<rect x="2.261" y="31.87" fill="#9D9D9C" width="70.641" height="0.221"/>
	<path fill="#646363" d="M23.913,26.178c-0.02-0.02-0.054-0.046-0.105-0.079c-0.05-0.032-0.112-0.064-0.185-0.096
		s-0.151-0.059-0.236-0.08c-0.085-0.022-0.171-0.033-0.259-0.033c-0.156,0-0.272,0.029-0.349,0.087s-0.115,0.138-0.115,0.242
		c0,0.061,0.014,0.11,0.043,0.149c0.029,0.04,0.07,0.074,0.125,0.104c0.054,0.03,0.124,0.058,0.207,0.082
		c0.083,0.025,0.18,0.052,0.29,0.078c0.142,0.038,0.271,0.08,0.388,0.124c0.116,0.043,0.215,0.099,0.295,0.164
		s0.143,0.144,0.187,0.235c0.044,0.092,0.066,0.205,0.066,0.34c0,0.155-0.029,0.289-0.088,0.399
		c-0.059,0.111-0.139,0.201-0.238,0.27c-0.1,0.068-0.215,0.118-0.345,0.149c-0.13,0.032-0.266,0.047-0.409,0.047
		c-0.219,0-0.435-0.032-0.648-0.098c-0.213-0.066-0.405-0.159-0.575-0.279l0.251-0.488c0.024,0.024,0.068,0.057,0.133,0.096
		c0.064,0.04,0.14,0.08,0.228,0.119c0.088,0.04,0.185,0.073,0.292,0.101c0.106,0.027,0.216,0.041,0.328,0.041
		c0.312,0,0.468-0.1,0.468-0.3c0-0.062-0.018-0.116-0.053-0.159c-0.036-0.045-0.086-0.083-0.152-0.115
		c-0.066-0.033-0.146-0.063-0.238-0.091c-0.093-0.027-0.197-0.058-0.312-0.091c-0.14-0.038-0.261-0.08-0.363-0.125
		c-0.103-0.045-0.188-0.099-0.257-0.16s-0.12-0.133-0.154-0.213c-0.034-0.081-0.051-0.178-0.051-0.29
		c0-0.147,0.027-0.279,0.083-0.394c0.055-0.115,0.13-0.211,0.228-0.288s0.21-0.135,0.339-0.175c0.129-0.039,0.267-0.059,0.415-0.059
		c0.206,0,0.395,0.032,0.567,0.096c0.172,0.064,0.323,0.141,0.452,0.229L23.913,26.178z"/>
	<path fill="#646363" d="M25.736,28.371c-0.175,0-0.333-0.03-0.472-0.09c-0.14-0.061-0.258-0.143-0.355-0.245
		c-0.098-0.103-0.172-0.221-0.224-0.355c-0.052-0.134-0.078-0.274-0.078-0.422c0-0.151,0.026-0.294,0.078-0.428
		s0.126-0.252,0.224-0.354c0.097-0.104,0.215-0.185,0.355-0.245c0.14-0.06,0.297-0.09,0.472-0.09s0.332,0.03,0.47,0.09
		c0.138,0.061,0.256,0.142,0.353,0.245c0.097,0.103,0.172,0.221,0.224,0.354c0.052,0.134,0.078,0.276,0.078,0.428
		c0,0.147-0.026,0.288-0.078,0.422c-0.052,0.135-0.125,0.253-0.222,0.355c-0.096,0.103-0.213,0.185-0.353,0.245
		C26.069,28.34,25.912,28.371,25.736,28.371 M25.174,27.258c0,0.095,0.015,0.183,0.043,0.26c0.029,0.078,0.068,0.146,0.119,0.204
		c0.051,0.057,0.11,0.102,0.179,0.133c0.068,0.032,0.142,0.047,0.222,0.047s0.153-0.015,0.222-0.047
		c0.068-0.031,0.128-0.076,0.179-0.133c0.051-0.058,0.09-0.126,0.119-0.206c0.028-0.079,0.043-0.167,0.043-0.263
		c0-0.093-0.015-0.179-0.043-0.259c-0.029-0.079-0.068-0.147-0.119-0.205s-0.11-0.102-0.179-0.133
		c-0.068-0.032-0.142-0.048-0.222-0.048s-0.153,0.017-0.222,0.049c-0.068,0.033-0.128,0.079-0.179,0.136
		c-0.051,0.058-0.09,0.126-0.119,0.205C25.188,27.079,25.174,27.165,25.174,27.258"/>
	<path fill="#646363" d="M27.991,28.371c-0.222,0-0.39-0.071-0.505-0.214c-0.115-0.143-0.173-0.353-0.173-0.632v-1.347h0.55v1.228
		c0,0.331,0.119,0.496,0.357,0.496c0.106,0,0.21-0.031,0.31-0.096c0.1-0.064,0.181-0.162,0.244-0.294v-1.334h0.55v1.519
		c0,0.058,0.01,0.099,0.031,0.124c0.021,0.024,0.054,0.038,0.101,0.041v0.468c-0.055,0.011-0.101,0.018-0.138,0.021
		c-0.037,0.002-0.07,0.004-0.101,0.004c-0.099,0-0.179-0.022-0.24-0.067s-0.098-0.107-0.109-0.188l-0.012-0.172
		c-0.096,0.147-0.219,0.259-0.369,0.332C28.336,28.333,28.171,28.371,27.991,28.371"/>
	<path fill="#646363" d="M31.263,28.218c-0.074,0.033-0.165,0.066-0.271,0.099c-0.107,0.033-0.219,0.05-0.337,0.05
		c-0.077,0-0.149-0.01-0.216-0.029c-0.067-0.019-0.125-0.05-0.176-0.092c-0.051-0.043-0.091-0.098-0.121-0.165
		c-0.03-0.066-0.045-0.147-0.045-0.244v-1.235h-0.283v-0.423h0.283V25.48h0.55v0.698h0.452v0.423h-0.452v1.051
		c0,0.077,0.02,0.131,0.06,0.162s0.088,0.047,0.146,0.047c0.058,0,0.114-0.009,0.168-0.028c0.055-0.019,0.099-0.035,0.132-0.049
		L31.263,28.218z"/>
	<path fill="#646363" d="M33.653,28.33h-0.55v-1.208c0-0.169-0.032-0.294-0.094-0.375c-0.063-0.081-0.152-0.121-0.267-0.121
		c-0.049,0-0.101,0.011-0.156,0.032c-0.055,0.022-0.106,0.054-0.156,0.093c-0.049,0.04-0.094,0.087-0.136,0.142
		c-0.041,0.055-0.071,0.115-0.09,0.181v1.257h-0.55v-2.998h0.55v1.244c0.08-0.14,0.187-0.246,0.322-0.322
		c0.136-0.075,0.286-0.112,0.45-0.112c0.14,0,0.253,0.023,0.341,0.072c0.088,0.047,0.156,0.111,0.206,0.19s0.083,0.17,0.103,0.271
		c0.019,0.102,0.029,0.206,0.029,0.312V28.33z"/>
	<polygon fill="#646363" points="36.847,26.178 37.369,26.178 36.47,28.33 36.018,28.33 35.649,27.385 35.283,28.33 34.831,28.33 
		33.936,26.178 34.454,26.178 35.094,27.812 35.357,27.114 34.979,26.182 35.422,26.182 35.649,26.843 35.878,26.182 36.322,26.182 
		35.948,27.114 36.208,27.812 	"/>
	<path fill="#646363" d="M38.646,28.371c-0.173,0-0.328-0.029-0.469-0.089c-0.139-0.059-0.258-0.139-0.356-0.239
		c-0.099-0.102-0.175-0.22-0.228-0.354c-0.054-0.135-0.08-0.275-0.08-0.423c0-0.153,0.025-0.298,0.078-0.434
		c0.051-0.135,0.127-0.255,0.225-0.356c0.1-0.104,0.219-0.185,0.359-0.245c0.142-0.06,0.299-0.09,0.475-0.09s0.332,0.03,0.471,0.09
		c0.138,0.061,0.256,0.142,0.354,0.242c0.096,0.102,0.17,0.22,0.221,0.354s0.076,0.273,0.076,0.419c0,0.035,0,0.069-0.002,0.103
		s-0.005,0.061-0.01,0.082h-1.664c0.009,0.085,0.029,0.16,0.062,0.226c0.033,0.066,0.074,0.122,0.127,0.169
		c0.052,0.047,0.111,0.082,0.177,0.106c0.065,0.025,0.134,0.037,0.205,0.037c0.109,0,0.213-0.027,0.31-0.08
		c0.098-0.054,0.164-0.124,0.199-0.212l0.473,0.132c-0.079,0.164-0.206,0.299-0.38,0.404S38.886,28.371,38.646,28.371
		 M39.205,27.073c-0.014-0.161-0.074-0.29-0.18-0.388c-0.104-0.097-0.232-0.146-0.383-0.146c-0.074,0-0.143,0.013-0.207,0.038
		c-0.064,0.026-0.121,0.062-0.171,0.109s-0.09,0.103-0.121,0.168c-0.032,0.066-0.05,0.139-0.056,0.218H39.205z"/>
	<path fill="#646363" d="M41.023,28.371c-0.18,0-0.357-0.029-0.529-0.086c-0.172-0.058-0.32-0.14-0.443-0.247l0.205-0.345
		c0.131,0.093,0.26,0.163,0.384,0.212c0.125,0.048,0.249,0.071,0.372,0.071c0.109,0,0.195-0.021,0.258-0.062
		c0.063-0.041,0.096-0.1,0.096-0.176c0-0.077-0.037-0.133-0.111-0.169s-0.194-0.076-0.361-0.123
		c-0.14-0.038-0.259-0.075-0.357-0.111c-0.099-0.035-0.178-0.075-0.238-0.12c-0.061-0.046-0.104-0.098-0.131-0.157
		c-0.027-0.059-0.041-0.129-0.041-0.211c0-0.109,0.021-0.208,0.062-0.296c0.043-0.088,0.104-0.162,0.18-0.224
		s0.166-0.108,0.269-0.142c0.103-0.032,0.214-0.049,0.335-0.049c0.161,0,0.312,0.023,0.453,0.069
		c0.142,0.047,0.271,0.122,0.389,0.226l-0.222,0.333c-0.11-0.082-0.216-0.143-0.319-0.181c-0.102-0.039-0.204-0.058-0.305-0.058
		c-0.094,0-0.172,0.019-0.234,0.058c-0.062,0.038-0.094,0.1-0.094,0.185c0,0.038,0.007,0.07,0.021,0.095
		c0.016,0.024,0.039,0.046,0.072,0.065s0.076,0.038,0.129,0.056c0.054,0.018,0.119,0.036,0.199,0.056
		c0.148,0.038,0.274,0.076,0.38,0.115c0.105,0.038,0.192,0.081,0.259,0.131c0.067,0.049,0.117,0.105,0.148,0.17
		s0.047,0.143,0.047,0.232c0,0.211-0.078,0.377-0.234,0.499C41.503,28.309,41.292,28.371,41.023,28.371"/>
	<path fill="#646363" d="M43.643,28.218c-0.074,0.033-0.164,0.066-0.271,0.099c-0.107,0.033-0.22,0.05-0.338,0.05
		c-0.076,0-0.148-0.01-0.215-0.029c-0.067-0.019-0.127-0.05-0.177-0.092c-0.051-0.043-0.091-0.098-0.121-0.165
		c-0.03-0.066-0.045-0.147-0.045-0.244v-1.235h-0.284v-0.423h0.284V25.48h0.55v0.698h0.452v0.423h-0.452v1.051
		c0,0.077,0.02,0.131,0.06,0.162s0.089,0.047,0.146,0.047c0.059,0,0.114-0.009,0.169-0.028c0.055-0.019,0.099-0.035,0.132-0.049
		L43.643,28.218z"/>
	<path fill="#646363" d="M44.978,28.371c-0.173,0-0.328-0.029-0.469-0.089c-0.139-0.059-0.258-0.139-0.357-0.239
		c-0.098-0.102-0.174-0.22-0.228-0.354c-0.054-0.135-0.08-0.275-0.08-0.423c0-0.153,0.026-0.298,0.078-0.434
		c0.052-0.135,0.127-0.255,0.226-0.356c0.099-0.104,0.219-0.185,0.359-0.245c0.141-0.06,0.299-0.09,0.475-0.09
		c0.175,0,0.332,0.03,0.47,0.09c0.138,0.061,0.257,0.142,0.354,0.242c0.097,0.102,0.171,0.22,0.222,0.354s0.075,0.273,0.075,0.419
		c0,0.035-0.001,0.069-0.001,0.103c-0.002,0.033-0.006,0.061-0.011,0.082h-1.663c0.008,0.085,0.029,0.16,0.061,0.226
		c0.034,0.066,0.076,0.122,0.129,0.169c0.051,0.047,0.11,0.082,0.176,0.106c0.066,0.025,0.135,0.037,0.205,0.037
		c0.109,0,0.213-0.027,0.311-0.08c0.098-0.054,0.164-0.124,0.199-0.212l0.473,0.132c-0.08,0.164-0.207,0.299-0.381,0.404
		S45.218,28.371,44.978,28.371 M45.537,27.073c-0.015-0.161-0.074-0.29-0.18-0.388c-0.105-0.097-0.232-0.146-0.383-0.146
		c-0.074,0-0.144,0.013-0.208,0.038c-0.064,0.026-0.121,0.062-0.171,0.109c-0.049,0.047-0.09,0.103-0.121,0.168
		c-0.031,0.066-0.049,0.139-0.055,0.218H45.537z"/>
	<path fill="#646363" d="M47.824,26.654c-0.168,0.003-0.316,0.035-0.448,0.097s-0.226,0.154-0.283,0.277v1.302h-0.551v-2.151h0.505
		v0.459c0.039-0.073,0.084-0.14,0.137-0.198c0.051-0.06,0.107-0.11,0.168-0.154s0.121-0.077,0.182-0.101
		c0.062-0.023,0.122-0.035,0.18-0.035h0.068c0.014,0,0.029,0.002,0.043,0.005V26.654z"/>
	<path fill="#646363" d="M50.233,28.33h-0.55v-1.208c0-0.172-0.03-0.298-0.09-0.377c-0.061-0.08-0.145-0.119-0.251-0.119
		c-0.055,0-0.111,0.011-0.169,0.032c-0.057,0.022-0.111,0.054-0.162,0.093c-0.051,0.04-0.096,0.087-0.137,0.142
		s-0.072,0.115-0.09,0.181v1.257h-0.551v-2.151h0.496v0.397c0.08-0.137,0.195-0.243,0.346-0.319c0.15-0.077,0.32-0.115,0.509-0.115
		c0.134,0,0.243,0.024,0.329,0.073c0.084,0.05,0.15,0.114,0.196,0.193c0.047,0.08,0.079,0.17,0.097,0.271
		c0.018,0.102,0.026,0.204,0.026,0.309V28.33z"/>
	<path fill="#646363" d="M53.203,28.35c-0.214,0-0.408-0.042-0.582-0.125c-0.174-0.084-0.322-0.194-0.447-0.333
		c-0.125-0.138-0.221-0.296-0.289-0.475c-0.068-0.178-0.104-0.359-0.104-0.546c0-0.194,0.037-0.38,0.109-0.559
		c0.072-0.178,0.172-0.335,0.3-0.472s0.278-0.246,0.454-0.326c0.175-0.081,0.365-0.121,0.57-0.121c0.211,0,0.402,0.043,0.576,0.129
		s0.323,0.199,0.446,0.339s0.219,0.299,0.288,0.476c0.068,0.179,0.102,0.359,0.102,0.542c0,0.195-0.035,0.38-0.106,0.558
		c-0.071,0.176-0.17,0.332-0.296,0.468c-0.125,0.135-0.276,0.243-0.451,0.324C53.597,28.309,53.408,28.35,53.203,28.35
		 M52.356,26.872c0,0.126,0.019,0.248,0.058,0.365c0.038,0.118,0.094,0.222,0.166,0.312c0.072,0.09,0.162,0.163,0.268,0.218
		s0.225,0.082,0.359,0.082c0.137,0,0.258-0.028,0.363-0.084c0.105-0.057,0.193-0.131,0.267-0.225
		c0.072-0.093,0.127-0.197,0.165-0.313c0.036-0.116,0.055-0.234,0.055-0.355c0-0.126-0.02-0.247-0.061-0.365
		c-0.039-0.117-0.096-0.222-0.167-0.312c-0.073-0.091-0.162-0.163-0.267-0.216c-0.105-0.054-0.225-0.08-0.355-0.08
		c-0.137,0-0.26,0.027-0.365,0.084c-0.107,0.056-0.196,0.13-0.268,0.222s-0.125,0.195-0.162,0.312
		C52.375,26.633,52.356,26.751,52.356,26.872"/>
	<path fill="#646363" d="M57.111,28.33h-0.55v-1.208c0-0.172-0.03-0.298-0.091-0.377c-0.061-0.08-0.144-0.119-0.25-0.119
		c-0.055,0-0.111,0.011-0.168,0.032c-0.059,0.022-0.112,0.054-0.162,0.093c-0.051,0.04-0.098,0.087-0.139,0.142
		s-0.07,0.115-0.09,0.181v1.257h-0.55v-2.151h0.497v0.397c0.078-0.137,0.193-0.243,0.344-0.319c0.15-0.077,0.32-0.115,0.51-0.115
		c0.134,0,0.243,0.024,0.328,0.073c0.085,0.05,0.15,0.114,0.197,0.193c0.047,0.08,0.079,0.17,0.097,0.271
		c0.018,0.102,0.026,0.204,0.026,0.309V28.33z"/>
	<path fill="#646363" d="M58.962,28.218c-0.073,0.033-0.164,0.066-0.271,0.099c-0.106,0.033-0.219,0.05-0.337,0.05
		c-0.076,0-0.148-0.01-0.216-0.029c-0.066-0.019-0.126-0.05-0.176-0.092c-0.051-0.043-0.091-0.098-0.121-0.165
		c-0.03-0.066-0.046-0.147-0.046-0.244v-1.235h-0.283v-0.423h0.283V25.48h0.551v0.698h0.451v0.423h-0.451v1.051
		c0,0.077,0.02,0.131,0.06,0.162s0.088,0.047,0.146,0.047s0.113-0.009,0.168-0.028c0.055-0.019,0.1-0.035,0.132-0.049L58.962,28.218
		z"/>
	<path fill="#646363" d="M59.941,28.371c-0.104,0-0.202-0.018-0.292-0.052c-0.091-0.034-0.169-0.082-0.234-0.144
		s-0.116-0.133-0.153-0.215c-0.037-0.083-0.056-0.173-0.056-0.271c0-0.102,0.022-0.195,0.067-0.281s0.108-0.159,0.189-0.22
		c0.08-0.061,0.177-0.107,0.289-0.142s0.235-0.052,0.369-0.052c0.096,0,0.189,0.009,0.281,0.024c0.092,0.017,0.174,0.04,0.244,0.07
		v-0.123c0-0.143-0.039-0.252-0.121-0.328c-0.08-0.077-0.199-0.115-0.358-0.115c-0.115,0-0.228,0.021-0.337,0.062
		s-0.222,0.102-0.337,0.181l-0.169-0.349c0.277-0.184,0.575-0.275,0.896-0.275c0.309,0,0.549,0.076,0.721,0.228
		c0.17,0.152,0.256,0.372,0.256,0.659v0.669c0,0.058,0.01,0.099,0.031,0.124c0.02,0.024,0.054,0.038,0.1,0.04v0.469
		c-0.092,0.019-0.174,0.028-0.242,0.028c-0.104,0-0.184-0.023-0.24-0.069c-0.056-0.047-0.091-0.108-0.104-0.185l-0.012-0.119
		c-0.097,0.125-0.212,0.222-0.349,0.287C60.243,28.337,60.097,28.371,59.941,28.371 M60.097,27.968c0.092,0,0.181-0.017,0.264-0.05
		c0.084-0.032,0.148-0.076,0.195-0.131c0.061-0.047,0.09-0.099,0.09-0.156v-0.246c-0.064-0.024-0.137-0.045-0.213-0.06
		c-0.076-0.016-0.15-0.022-0.222-0.022c-0.143,0-0.259,0.032-0.349,0.096c-0.09,0.064-0.136,0.146-0.136,0.245
		c0,0.093,0.036,0.17,0.106,0.231C59.905,27.937,59.992,27.968,60.097,27.968"/>
	<path fill="#646363" d="M63.093,26.654c-0.166,0.003-0.315,0.035-0.447,0.097c-0.131,0.062-0.226,0.154-0.283,0.277v1.302h-0.551
		v-2.151h0.506v0.459c0.038-0.073,0.083-0.14,0.135-0.198c0.053-0.06,0.109-0.11,0.169-0.154s0.121-0.077,0.183-0.101
		s0.121-0.035,0.179-0.035h0.067c0.016,0,0.029,0.002,0.043,0.005V26.654z"/>
	<path fill="#646363" d="M63.503,25.332h0.551v0.546h-0.551V25.332z M63.503,26.178h0.551v2.151h-0.551V26.178z"/>
</g>
<g>
	<path fill="#646363" d="M65.648,28.371c-0.176,0-0.333-0.03-0.473-0.09c-0.14-0.061-0.258-0.143-0.355-0.245
		c-0.097-0.103-0.172-0.221-0.223-0.355c-0.053-0.134-0.079-0.274-0.079-0.422c0-0.151,0.026-0.294,0.079-0.428
		c0.051-0.134,0.126-0.252,0.223-0.354c0.098-0.104,0.216-0.185,0.355-0.245c0.14-0.06,0.297-0.09,0.473-0.09
		c0.175,0,0.332,0.03,0.47,0.09c0.139,0.061,0.256,0.142,0.354,0.245c0.097,0.103,0.172,0.221,0.224,0.354s0.078,0.276,0.078,0.428
		c0,0.147-0.026,0.288-0.078,0.422c-0.052,0.135-0.126,0.253-0.222,0.355c-0.097,0.103-0.214,0.185-0.354,0.245
		C65.98,28.34,65.823,28.371,65.648,28.371 M65.085,27.258c0,0.095,0.014,0.183,0.043,0.26c0.028,0.078,0.068,0.146,0.119,0.204
		c0.051,0.057,0.109,0.102,0.178,0.133c0.068,0.032,0.143,0.047,0.223,0.047c0.079,0,0.152-0.015,0.222-0.047
		c0.067-0.031,0.128-0.076,0.179-0.133c0.051-0.058,0.09-0.126,0.119-0.206c0.028-0.079,0.043-0.167,0.043-0.263
		c0-0.093-0.015-0.179-0.043-0.259c-0.029-0.079-0.068-0.147-0.119-0.205s-0.111-0.102-0.179-0.133
		c-0.069-0.032-0.143-0.048-0.222-0.048c-0.08,0-0.154,0.017-0.223,0.049c-0.068,0.033-0.127,0.079-0.178,0.136
		c-0.051,0.058-0.091,0.126-0.119,0.205C65.099,27.079,65.085,27.165,65.085,27.258"/>
	<path fill="#E31624" d="M18.992,2.139l0.048,0.869c-0.254,0-0.072,0.34-0.291,0.352c-0.386,1.195-1.606,1.027-2.078,2.14
		c-0.253,0.349-0.483,0.7-0.471,1.159L15.97,6.839C15.995,6.913,16.091,6.9,16.139,6.9v0.229h-0.398
		c-0.29-0.882,0.544-1.74,0.169-2.671c-0.616-0.797-1.969-1.45-1.329-2.609c0.146,0.049,0.254-0.133,0.29-0.229
		c0.012-0.061-0.036-0.084-0.061-0.121c0.314-0.458,0.955-0.313,1.39-0.35c0.157,0.024,0.278,0.181,0.411,0.29
		c0.327-0.193,0.447-0.532,0.931-0.398l0.108-0.121C18.206,1.185,19.015,1.33,18.992,2.139"/>
	<path fill="#FFFFFF" d="M18.459,1.97c0.048,0.338,0.061,0.822-0.108,1.159c-0.085,0.122-0.411,0.183-0.411,0.399h-0.109L16.49,4.75
		c-0.085-0.883-0.906-1.076-1.269-1.801c-0.326-0.06-0.253-0.446-0.181-0.641c0.157-0.254,0.362-0.531,0.64-0.688
		c0.351-0.133,0.677,0.157,0.75,0.52c0.338,0.061,0.266,0.653,0.641,0.459c0.193-0.169,0.133-0.314,0.06-0.52
		c-0.083-0.108-0.241-0.217-0.12-0.398C17.419,1.426,18.302,1.342,18.459,1.97"/>
	<path d="M10.777,5.616c0.247,0.693,0.987,1.116,1.528,1.574c0.728,0.493,1.339,1.046,2.032,1.527
		c0.506-0.54,0.153-1.539,0.61-2.149c0.33-0.247,0.564,0.271,0.905,0.458c0.329-0.059,0.788,0.141,0.963-0.177
		c0.106,0.048,0.294,0.177,0.282,0.282c-0.857,0.623-0.635,1.856-1.07,2.655c0.071,0.282-0.129,0.446-0.058,0.729
		c0.787,0.976,1.914,1.621,2.878,2.432c0.165-0.071,0.293,0.105,0.33,0.223c-0.082-0.012-0.118,0.095-0.224,0.059
		c-0.364,1.187-0.2,2.315-0.505,3.384c0.258,0.152,0,0.375,0,0.563c0.211,1.258-0.435,2.526,0.117,3.771
		c0.071,0.236-0.128,0.412-0.059,0.564c-0.117,0.658,0.223,1.691,0,2.373c0.071,0.165,0.023,0.447-0.059,0.683
		c0.059,1.055-0.047,1.912-0.059,2.864c0.047,0.165,0.258,0.331,0.4,0.178c0.034,0.141-0.224,0.376-0.177,0.563
		c-0.798,0.022-1.797-0.036-2.643-0.176c-2.314,0.245-4.875,0.553-7.049-0.048c-1.915,0.154-3.654,0.212-5.533-0.059
		c-0.105,0.213-0.376,0.069-0.563,0.106c-0.176-0.282-0.376,0.176-0.564-0.165c0.376-0.717-0.165-1.422,0.175-2.196
		c0.072-1.681,0.072-3.524,0.224-5.251h0.058C2.742,19.219,3.106,18.327,3,17.175c0.129-0.998,0.011-1.962-0.118-2.995
		c-0.106-0.164-0.435-0.048-0.388-0.33c-0.093-0.34,0.564-0.444,0.447-0.903c0.094-0.106,0.27-0.047,0.399-0.06
		c0.258-0.493,0.716-0.834,1.069-1.245c0.67-0.423,0.917-1.174,1.633-1.516c1.187-1.232,2.69-2.114,3.606-3.5
		c0.317-0.247,0.47-0.518,0.564-0.904c-0.364-0.036-0.212-0.318-0.165-0.564h0.387c-0.011,0.06,0.036,0.094,0.059,0.118
		c0.294,0.011,0.317-0.436,0.682-0.341L10.777,5.616z"/>
</g>
<g>
	<path fill="#FFFFFF" d="M11,6.684c0.481,0.259,0.798,0.788,1.363,0.964c0,0.224,0.293,0.353,0.387,0.447
		c0.294,0.364,0.74,0.61,0.963,0.903c0.787,0.529,1.233,1.163,1.633,1.916c1.057,0.704,1.786,1.598,2.819,2.255
		c-0.082,0.646-0.082,1.27,0,1.856c-0.128,0.105,0.012,0.458-0.117,0.622c-0.118,0.188-0.235,0.529-0.106,0.788h-0.118
		c0.047,0.751,0,1.726-0.223,2.373c0.153,0.539-0.094,1.15,0.223,1.691c0.036,2.256-0.023,4.558-0.164,6.883
		c-0.082,0.144-0.34-0.059-0.34,0.165h-0.118c-0.163-0.341-0.469-0.047-0.786-0.165c-1.069,0.084-2.127,0.365-3.326,0.33
		c-1.069,0.035-2.102-0.022-3.101-0.165V27.49c-0.764-0.223-1.633-0.059-2.42,0c-0.94,0.271-2.008-0.035-3.054,0.059V27.49
		c-0.211-0.081-0.517-0.081-0.729,0v0.059c-0.046-0.165-0.293-0.094-0.446-0.117c0.035,0.117-0.317-0.012-0.458-0.048
		c0.046-3.5,0.329-7.518,0.623-11.112c-0.236-0.868-0.259-2.056,0-2.937c0.54-0.364,0.728-1.011,1.351-1.351
		c1.539-2.139,3.994-3.173,5.298-5.521C10.425,5.898,10.812,6.533,11,6.684"/>
	<path fill="#FFFFFF" d="M16.357,7.414c-0.106,0.353-0.047,0.964-0.388,1.245l-0.282,1.245c-0.188,0.047-0.142-0.07-0.223-0.176
		c-0.247-0.376-0.681-0.376-0.846-0.788c0.176-0.587,0.234-1.222,0.447-1.809C15.57,7.049,15.828,7.731,16.357,7.414"/>
	<path d="M12.949,12.056c0.841,1.109,1.924,1.878,3.307,2.025c0.207-0.002,0.399-0.023,0.592-0.052
		c0.072-0.001,0.129,0.061,0.138,0.141l-0.058,0.169l-2.068,3.104c-0.101,0.213-0.386,0.056-0.435,0.289l-0.092,0.198
		c0.133,0.252,0.186,0.599,0.082,0.842c-0.292,0.455-0.74,0.791-0.895,1.315c0.056,0.388,0.302,0.706,0.423,1.076
		c0.109,0.257,0.153,0.531,0.147,0.824c0.207-0.082,0.501-0.244,0.694-0.024c0.17,0.199,0.125,0.497,0.015,0.715
		c-0.167,0.318-0.559,0.5-0.862,0.669c-0.072,0.246-0.079,0.548-0.332,0.689c-0.17,0.109-0.362,0.131-0.564,0.158
		c-0.063,0.231-0.227,0.437-0.478,0.477c-0.01,0.18,0.014,0.42-0.164,0.53c-0.131,0.122-0.301,0.151-0.473,0.119
		c-0.035,0.258-0.177,0.499-0.424,0.578l-0.256,0.021c-0.213,0.225-0.509,0.233-0.797,0.182c-0.16-0.063-0.313-0.119-0.434-0.266
		c-0.248,0.021-0.499-0.091-0.623-0.277c-0.084-0.113-0.142-0.246-0.193-0.37c-0.354-0.035-0.615-0.355-0.694-0.673l-0.06-0.356
		c-0.627-0.555-0.504-1.536-0.244-2.233l0.299-0.676c-0.222-0.476-0.512-0.909-0.758-1.379c-0.148-0.023-0.341-0.004-0.43-0.147
		l-0.698-1.277c-0.144-0.07-0.316-0.096-0.403-0.256l-1.709-3.135c-0.046-0.1,0-0.23,0.04-0.322l0.196-0.13
		c0.645-0.096,1.304-0.251,1.789-0.806c0.219-0.199,0.462-0.572,0.802-0.395L7.44,13.51l1.806,3.28
		c0.026,0.136-0.141,0.216-0.042,0.336l0.575,1.146c0.084,0.191-0.164,0.365,0.035,0.521l0.055-0.074
		c0.131-0.432,0.31-0.945,0.183-1.411c0.037-0.521,0.613-0.717,1.021-0.842l0.186-0.339c-0.088-0.145-0.142-0.325-0.069-0.492
		c0.51-1.195,1.034-2.374,1.551-3.561C12.795,12.008,12.889,12.018,12.949,12.056"/>
	<path fill="#E31624" d="M16.409,14.455c-0.019,0.094-0.098,0.181-0.154,0.27c-1.395,0.201-2.588-0.642-3.489-1.639
		c0.021-0.133,0.081-0.246,0.14-0.359C13.823,13.708,14.941,14.592,16.409,14.455"/>
	<path fill="#FFFFFF" d="M15.941,15.146c-0.025,0.093-0.097,0.173-0.153,0.255c-1.356,0.054-2.453-0.653-3.34-1.617
		c0.042-0.098,0.061-0.207,0.132-0.288C13.478,14.444,14.562,15.198,15.941,15.146"/>
	<path fill="#E31624" d="M15.53,15.764c-0.056,0.081-0.1,0.274-0.249,0.26c-1.286-0.01-2.294-0.644-3.156-1.478
		c0.021-0.125,0.072-0.239,0.139-0.352C13.157,15.04,14.184,15.802,15.53,15.764"/>
	<path fill="#E31624" d="M8.741,16.754c0.015,0.407-0.441,0.591-0.719,0.824L7.418,17.9c-0.039,0.067-0.071,0.151-0.022,0.221
		c0.235,0.262,0.502-0.093,0.731-0.165c0.278-0.155,0.527-0.352,0.762-0.551l0.557,1.018c-0.105,0.331-0.461,0.558-0.741,0.728
		c-0.334,0.165-0.682,0.385-1.063,0.306c-0.288-0.459-0.526-0.935-0.805-1.392c-0.143-0.014-0.297-0.054-0.352-0.211l-1.531-2.774
		c-0.022-0.098,0.098-0.103,0.149-0.137c0.746-0.075,1.44-0.578,1.978-1.103l0.093,0.024L8.741,16.754z"/>
	<path fill="#FFFFFF" d="M15.121,16.349c-0.034,0.108-0.099,0.198-0.171,0.285c-1.25,0.025-2.261-0.585-3.116-1.387
		c-0.004-0.127,0.072-0.246,0.131-0.36C12.844,15.692,13.835,16.339,15.121,16.349"/>
	<path fill="#E31624" d="M14.695,16.951c0.006,0.096-0.087,0.15-0.142,0.224c-1.177,0.008-2.138-0.542-2.973-1.237
		c-0.054-0.101,0.014-0.222,0.062-0.304C12.5,16.339,13.474,16.93,14.695,16.951"/>
	<path fill="#E31624" d="M14.061,17.562c-0.054,0.225-0.197,0.456-0.438,0.567c-0.471,0.254-1.058,0.171-1.52-0.058
		c-0.35-0.227-0.708-0.454-0.734-0.908c-0.015-0.257,0.088-0.484,0.212-0.678C12.313,17.02,13.13,17.42,14.061,17.562"/>
	<path fill="#FAB900" d="M10.941,17.073c-0.08,0.476,0.225,0.927,0.605,1.172c0.583,0.434,1.548,0.634,2.211,0.279l0.253-0.148
		c0.059,0.053,0.071,0.165,0.039,0.25c-0.261,0.457-0.664,0.83-0.873,1.317c-0.09,0.737,0.595,1.268,0.504,2.021
		c-0.043,0.504-0.071,1.018-0.185,1.514c-0.06-0.586-0.454-1.253-1.02-1.542c-0.147-0.037-0.271,0.006-0.387,0.058
		c-0.104,0.085-0.17,0.188-0.212,0.297c-0.143-0.078-0.294-0.007-0.424,0.028c-0.227,0.128-0.344,0.347-0.34,0.616
		c-0.206,0.066-0.368,0.266-0.398,0.478c0.018,0.144-0.024,0.314,0.051,0.441c-0.391,0.493-0.24,1.198-0.005,1.707l0.142,0.174
		c-0.096,0.077-0.244,0.054-0.351,0.013c-0.47-0.224-0.444-0.8-0.412-1.273c-0.011-0.288,0.194-0.664-0.014-0.892
		c-0.098-0.048-0.193,0.028-0.225,0.104c-0.144,0.558-0.266,1.221-0.107,1.77c-0.343-0.219-0.378-0.659-0.349-1.036
		c0.018-0.484,0.15-0.931,0.251-1.382c0.008-0.079-0.034-0.139-0.092-0.192C9.506,22.79,9.41,22.875,9.371,22.95
		c-0.201,0.576-0.274,1.221-0.256,1.834c-0.187-0.043-0.25-0.279-0.305-0.444c-0.078-0.556,0.113-1.115,0.23-1.645
		C9.032,22.607,9.038,22.48,8.92,22.46c-0.296,0.018-0.277,0.385-0.371,0.605l-0.08,0.557c-0.251-0.343-0.126-0.871-0.037-1.283
		c0.392-1.04,1.007-1.956,1.52-2.937c0.23-0.557,0.572-1.102,0.528-1.766c-0.048-0.156-0.019-0.367,0.067-0.51
		c0.113-0.1,0.246-0.157,0.384-0.184L10.941,17.073z"/>
	<path fill="#FFFFFF" d="M9.61,19.242c-0.254,0.554-0.553,1.08-0.861,1.604l-0.023-0.003L8.17,19.819
		c0.45-0.209,0.917-0.424,1.318-0.78C9.548,19.077,9.57,19.174,9.61,19.242"/>
	<path fill="#FFFFFF" d="M14.583,22.317c0.018,0.287-0.282,0.434-0.484,0.538c-0.024,0.006-0.081,0.024-0.068-0.022l0.04-0.4
		c0.151-0.081,0.29-0.186,0.457-0.201L14.583,22.317z"/>
	<path fill="#FFFFFF" d="M13.014,23.063c0.074,0.206,0.261,0.487,0.049,0.689c-0.039-0.004-0.06,0.042-0.096,0.021
		c-0.176-0.462-0.417-0.916-0.8-1.288c0.023-0.076,0.018-0.181,0.118-0.226C12.693,22.301,12.829,22.767,13.014,23.063"/>
	<path fill="#FFFFFF" d="M12.327,23.256c0.099,0.352,0.597,0.775,0.167,1.098c-0.228-0.492-0.56-0.894-1.015-1.351
		c-0.039-0.083-0.02-0.199,0.02-0.275c0.046-0.066,0.113-0.092,0.178-0.109C11.996,22.675,12.161,23.01,12.327,23.256"/>
	<path fill="#FFFFFF" d="M11.879,23.911c0.171,0.271,0.31,0.556,0.358,0.862c-0.003,0.104-0.082,0.182-0.166,0.222l-0.187-0.035
		c-0.148-0.411-0.23-1.024-0.758-1.148c-0.074-0.127-0.12-0.307-0.049-0.466c0.072-0.08,0.198-0.067,0.272-0.013
		C11.57,23.434,11.758,23.699,11.879,23.911"/>
	<path fill="#FFFFFF" d="M11.33,24.395c0.129,0.293,0.194,0.592,0.201,0.918c-0.023,0.085-0.083,0.199-0.194,0.203
		c-0.314-0.04-0.324-0.414-0.428-0.639c-0.051-0.205-0.041-0.465,0.065-0.652C11.113,24.103,11.28,24.263,11.33,24.395"/>
	<path d="M19.797,27.089c0.328,0,0.589,0.266,0.589,0.599c0,0.339-0.261,0.603-0.591,0.603c-0.328,0-0.594-0.264-0.594-0.603
		c0-0.333,0.267-0.599,0.594-0.599H19.797z M19.794,27.183c-0.264,0-0.48,0.226-0.48,0.505c0,0.285,0.216,0.51,0.482,0.51
		c0.267,0.002,0.48-0.225,0.48-0.506c0-0.283-0.213-0.509-0.48-0.509H19.794z M19.683,28.038h-0.107v-0.669
		c0.056-0.008,0.11-0.016,0.19-0.016c0.101,0,0.167,0.021,0.208,0.051c0.04,0.029,0.061,0.074,0.061,0.138
		c0,0.088-0.059,0.143-0.13,0.163v0.005c0.059,0.011,0.099,0.064,0.112,0.163c0.016,0.104,0.032,0.144,0.042,0.165h-0.112
		c-0.016-0.021-0.032-0.083-0.045-0.17c-0.016-0.086-0.059-0.118-0.144-0.118h-0.075V28.038z M19.683,27.667h0.077
		c0.087,0,0.163-0.032,0.163-0.115c0-0.059-0.042-0.116-0.163-0.116c-0.035,0-0.059,0.002-0.077,0.005V27.667z"/>
	<path fill="#6A90CA" d="M22.351,17.386v-4.248H24.2c0.192,0,0.368,0.04,0.53,0.12c0.162,0.079,0.3,0.184,0.416,0.313
		c0.115,0.13,0.206,0.277,0.272,0.443c0.066,0.165,0.099,0.334,0.099,0.505c0,0.144-0.02,0.281-0.06,0.413
		c-0.04,0.132-0.096,0.254-0.168,0.365c-0.072,0.111-0.16,0.208-0.263,0.29c-0.104,0.082-0.217,0.143-0.341,0.183l0.999,1.615h-0.76
		l-0.921-1.478h-0.981v1.478H22.351z M23.021,15.316h1.173c0.096,0,0.183-0.021,0.26-0.062s0.145-0.1,0.2-0.174
		c0.056-0.073,0.1-0.158,0.132-0.254c0.032-0.096,0.048-0.198,0.048-0.306s-0.019-0.209-0.057-0.305
		c-0.039-0.096-0.088-0.18-0.149-0.252c-0.062-0.071-0.134-0.128-0.215-0.17c-0.082-0.042-0.167-0.063-0.254-0.063h-1.137V15.316z"
		/>
	<path fill="#6A90CA" d="M27.599,17.446c-0.248,0-0.47-0.044-0.667-0.132c-0.197-0.087-0.366-0.205-0.505-0.353
		s-0.248-0.319-0.323-0.518c-0.076-0.197-0.114-0.403-0.114-0.62c0-0.214,0.038-0.421,0.114-0.618s0.185-0.37,0.326-0.518
		s0.311-0.266,0.508-0.354c0.197-0.087,0.418-0.131,0.662-0.131c0.243,0,0.463,0.044,0.661,0.131
		c0.198,0.088,0.367,0.206,0.509,0.354c0.142,0.147,0.25,0.32,0.326,0.518c0.076,0.197,0.114,0.404,0.114,0.618
		c0,0.217-0.038,0.423-0.114,0.62c-0.076,0.198-0.185,0.37-0.326,0.518c-0.142,0.147-0.311,0.266-0.509,0.353
		C28.062,17.402,27.842,17.446,27.599,17.446 M26.665,15.831c0,0.151,0.024,0.291,0.072,0.419s0.114,0.238,0.197,0.332
		c0.084,0.094,0.183,0.167,0.296,0.221c0.113,0.055,0.236,0.081,0.368,0.081c0.131,0,0.254-0.026,0.368-0.081
		c0.114-0.054,0.212-0.128,0.296-0.224c0.084-0.096,0.15-0.207,0.198-0.336c0.048-0.127,0.072-0.267,0.072-0.419
		c0-0.146-0.024-0.285-0.072-0.415s-0.114-0.242-0.198-0.338c-0.083-0.096-0.182-0.171-0.296-0.225s-0.236-0.08-0.368-0.08
		c-0.128,0-0.249,0.027-0.362,0.083c-0.114,0.057-0.212,0.132-0.296,0.228c-0.084,0.096-0.151,0.208-0.201,0.338
		S26.665,15.683,26.665,15.831"/>
	<path fill="#6A90CA" d="M32.66,17.386h-0.658v-1.753c0-0.295-0.047-0.51-0.141-0.644c-0.094-0.134-0.232-0.2-0.416-0.2
		c-0.096,0-0.191,0.018-0.287,0.054s-0.186,0.087-0.269,0.153c-0.084,0.065-0.159,0.143-0.225,0.232s-0.117,0.188-0.152,0.297v1.86
		h-0.658v-3.129h0.598v0.628c0.12-0.212,0.293-0.378,0.521-0.499c0.228-0.122,0.479-0.184,0.754-0.184
		c0.187,0,0.341,0.034,0.461,0.103c0.12,0.067,0.214,0.16,0.284,0.277c0.07,0.118,0.119,0.254,0.146,0.407s0.042,0.316,0.042,0.488
		V17.386z"/>
	<path fill="#6A90CA" d="M34.317,17.446c-0.152,0-0.292-0.025-0.422-0.074c-0.129-0.05-0.241-0.119-0.335-0.207
		c-0.094-0.087-0.168-0.191-0.221-0.311c-0.054-0.12-0.082-0.249-0.082-0.389c0-0.147,0.032-0.281,0.096-0.401
		c0.063-0.12,0.154-0.224,0.272-0.312c0.118-0.087,0.257-0.155,0.419-0.203s0.34-0.071,0.535-0.071c0.147,0,0.293,0.012,0.437,0.038
		c0.143,0.026,0.273,0.061,0.389,0.105v-0.216c0-0.231-0.066-0.412-0.197-0.541c-0.133-0.13-0.321-0.195-0.569-0.195
		c-0.167,0-0.332,0.031-0.494,0.093c-0.162,0.062-0.328,0.151-0.5,0.267l-0.203-0.419c0.403-0.271,0.822-0.406,1.256-0.406
		c0.431,0,0.766,0.109,1.005,0.328c0.239,0.22,0.359,0.535,0.359,0.946v1.131c0,0.14,0.057,0.211,0.174,0.215v0.562
		c-0.064,0.013-0.119,0.021-0.166,0.025c-0.045,0.004-0.09,0.006-0.134,0.006c-0.128,0-0.227-0.032-0.296-0.096
		c-0.07-0.064-0.113-0.146-0.129-0.246l-0.018-0.197c-0.141,0.184-0.312,0.324-0.518,0.422S34.553,17.446,34.317,17.446
		 M34.497,16.961c0.16,0,0.31-0.028,0.452-0.087c0.142-0.058,0.253-0.139,0.332-0.242c0.084-0.071,0.126-0.147,0.126-0.228v-0.413
		c-0.112-0.044-0.23-0.077-0.356-0.102c-0.125-0.023-0.248-0.035-0.368-0.035c-0.235,0-0.427,0.05-0.577,0.152
		c-0.15,0.102-0.225,0.235-0.225,0.403c0,0.155,0.058,0.286,0.174,0.393C34.169,16.908,34.317,16.961,34.497,16.961"/>
	<path fill="#6A90CA" d="M36.926,13.018h0.657v3.465c0,0.116,0.031,0.206,0.09,0.272c0.061,0.065,0.145,0.099,0.252,0.099
		c0.044,0,0.095-0.009,0.152-0.023c0.059-0.017,0.113-0.035,0.165-0.055l0.096,0.515c-0.096,0.044-0.21,0.079-0.341,0.104
		c-0.133,0.025-0.25,0.039-0.354,0.039c-0.227,0-0.404-0.062-0.529-0.186c-0.126-0.124-0.188-0.299-0.188-0.526V13.018z"/>
	<path fill="#6A90CA" d="M40.055,17.446c-0.212,0-0.407-0.043-0.587-0.129c-0.179-0.085-0.334-0.202-0.467-0.35
		c-0.131-0.147-0.234-0.32-0.308-0.518s-0.11-0.409-0.11-0.637c0-0.22,0.035-0.426,0.104-0.62c0.069-0.192,0.167-0.363,0.293-0.511
		s0.273-0.265,0.442-0.351c0.17-0.085,0.356-0.129,0.561-0.129c0.251,0,0.473,0.062,0.664,0.183
		c0.191,0.122,0.341,0.276,0.448,0.464v-1.831h0.658v3.591c0,0.075,0.013,0.129,0.039,0.161c0.026,0.031,0.073,0.05,0.14,0.054
		v0.562c-0.066,0.012-0.121,0.02-0.164,0.024c-0.042,0.004-0.076,0.006-0.104,0.006c-0.132,0-0.239-0.034-0.323-0.103
		c-0.084-0.067-0.129-0.155-0.137-0.264l-0.013-0.232c-0.116,0.195-0.272,0.35-0.473,0.461C40.52,17.39,40.298,17.446,40.055,17.446
		 M40.216,16.883c0.096,0,0.191-0.016,0.287-0.047c0.096-0.032,0.184-0.076,0.264-0.132c0.08-0.057,0.148-0.122,0.207-0.198
		c0.057-0.075,0.098-0.157,0.122-0.245v-0.819c-0.036-0.1-0.087-0.191-0.152-0.275s-0.141-0.155-0.225-0.216
		c-0.083-0.06-0.173-0.105-0.267-0.138c-0.094-0.031-0.188-0.048-0.283-0.048c-0.133,0-0.253,0.03-0.362,0.09
		c-0.11,0.061-0.204,0.14-0.284,0.239c-0.08,0.101-0.143,0.214-0.188,0.341c-0.046,0.129-0.069,0.26-0.069,0.396
		c0,0.144,0.025,0.279,0.075,0.407c0.05,0.127,0.118,0.239,0.206,0.335s0.188,0.172,0.303,0.228
		C39.962,16.856,40.085,16.883,40.216,16.883"/>
	<polygon fill="#6A90CA" points="47.845,17.386 47.845,14.329 46.583,16.644 46.211,16.644 44.943,14.329 44.943,17.386 
		44.273,17.386 44.273,13.138 44.991,13.138 46.397,15.735 47.803,13.138 48.521,13.138 48.521,17.386 	"/>
	<path fill="#6A90CA" d="M49.209,15.819c0-0.22,0.038-0.428,0.114-0.623c0.075-0.195,0.184-0.366,0.326-0.514
		c0.141-0.147,0.311-0.265,0.511-0.351c0.2-0.085,0.423-0.128,0.671-0.128c0.322,0,0.601,0.07,0.834,0.212s0.408,0.33,0.523,0.565
		l-0.641,0.203c-0.076-0.131-0.177-0.234-0.305-0.308c-0.127-0.074-0.27-0.11-0.425-0.11c-0.132,0-0.255,0.025-0.368,0.077
		s-0.212,0.125-0.296,0.219c-0.083,0.094-0.149,0.204-0.197,0.331c-0.048,0.128-0.071,0.27-0.071,0.426
		c0,0.151,0.024,0.292,0.074,0.421c0.05,0.131,0.117,0.243,0.203,0.339s0.186,0.17,0.299,0.224c0.114,0.055,0.234,0.081,0.363,0.081
		c0.078,0,0.158-0.011,0.238-0.032c0.08-0.022,0.152-0.054,0.219-0.093c0.066-0.04,0.123-0.086,0.174-0.138
		c0.05-0.052,0.086-0.108,0.11-0.168l0.646,0.191c-0.104,0.235-0.277,0.428-0.52,0.577c-0.244,0.15-0.531,0.225-0.861,0.225
		c-0.244,0-0.466-0.044-0.664-0.132c-0.2-0.087-0.371-0.206-0.512-0.355c-0.143-0.149-0.252-0.322-0.33-0.518
		S49.209,16.038,49.209,15.819"/>
	<path fill="#6A90CA" d="M52.901,17.385v-4.247h1.508c0.343,0,0.644,0.056,0.9,0.168c0.257,0.111,0.473,0.263,0.646,0.454
		c0.173,0.191,0.304,0.416,0.392,0.673c0.088,0.258,0.132,0.532,0.132,0.823c0,0.323-0.049,0.615-0.146,0.876
		c-0.098,0.262-0.236,0.484-0.416,0.671c-0.18,0.186-0.397,0.328-0.651,0.431c-0.256,0.102-0.541,0.151-0.856,0.151H52.901z
		 M55.796,15.256c0-0.224-0.03-0.429-0.092-0.616c-0.062-0.188-0.152-0.349-0.273-0.482c-0.119-0.133-0.265-0.238-0.436-0.313
		c-0.172-0.076-0.367-0.114-0.587-0.114h-0.837v3.064h0.837c0.224,0,0.422-0.039,0.596-0.117c0.173-0.077,0.319-0.186,0.437-0.323
		s0.206-0.301,0.266-0.487C55.767,15.679,55.796,15.476,55.796,15.256"/>
	<path fill="#6A90CA" d="M58.567,17.446c-0.247,0-0.47-0.044-0.667-0.132c-0.197-0.087-0.365-0.205-0.506-0.353
		c-0.14-0.147-0.247-0.319-0.323-0.518c-0.075-0.197-0.113-0.403-0.113-0.62c0-0.214,0.038-0.421,0.113-0.618
		c0.076-0.197,0.185-0.37,0.326-0.518s0.312-0.266,0.509-0.354c0.197-0.087,0.418-0.131,0.661-0.131s0.464,0.044,0.661,0.131
		c0.197,0.088,0.367,0.206,0.509,0.354s0.251,0.32,0.325,0.518c0.076,0.197,0.115,0.404,0.115,0.618c0,0.217-0.039,0.423-0.115,0.62
		c-0.074,0.198-0.184,0.37-0.325,0.518s-0.312,0.266-0.509,0.353C59.031,17.402,58.81,17.446,58.567,17.446 M57.634,15.831
		c0,0.151,0.023,0.291,0.071,0.419s0.114,0.238,0.197,0.332c0.084,0.094,0.183,0.167,0.296,0.221
		c0.113,0.055,0.236,0.081,0.368,0.081s0.255-0.026,0.368-0.081c0.113-0.054,0.213-0.128,0.296-0.224
		c0.084-0.096,0.149-0.207,0.198-0.336c0.047-0.127,0.071-0.267,0.071-0.419c0-0.146-0.024-0.285-0.071-0.415
		c-0.049-0.13-0.114-0.242-0.198-0.338c-0.083-0.096-0.183-0.171-0.296-0.225s-0.236-0.08-0.368-0.08
		c-0.128,0-0.248,0.027-0.362,0.083c-0.113,0.057-0.213,0.132-0.295,0.228c-0.084,0.096-0.151,0.208-0.201,0.338
		S57.634,15.683,57.634,15.831"/>
	<path fill="#6A90CA" d="M63.628,17.386H62.97v-1.753c0-0.295-0.047-0.51-0.141-0.644s-0.232-0.2-0.416-0.2
		c-0.096,0-0.191,0.018-0.287,0.054s-0.186,0.087-0.269,0.153c-0.083,0.065-0.159,0.143-0.225,0.232s-0.116,0.188-0.152,0.297v1.86
		h-0.658v-3.129h0.599v0.628c0.119-0.212,0.293-0.378,0.52-0.499c0.229-0.122,0.479-0.184,0.754-0.184
		c0.188,0,0.342,0.034,0.461,0.103c0.12,0.067,0.215,0.16,0.285,0.277c0.069,0.118,0.117,0.254,0.146,0.407
		c0.027,0.153,0.041,0.316,0.041,0.488V17.386z"/>
	<path fill="#6A90CA" d="M65.287,17.446c-0.152,0-0.293-0.025-0.422-0.074c-0.13-0.05-0.242-0.119-0.336-0.207
		c-0.094-0.087-0.168-0.191-0.221-0.311c-0.055-0.12-0.081-0.249-0.081-0.389c0-0.147,0.032-0.281,0.096-0.401
		s0.155-0.224,0.272-0.312c0.117-0.087,0.258-0.155,0.419-0.203s0.34-0.071,0.535-0.071c0.147,0,0.294,0.012,0.437,0.038
		c0.144,0.026,0.273,0.061,0.389,0.105v-0.216c0-0.231-0.065-0.412-0.197-0.541c-0.131-0.13-0.32-0.195-0.568-0.195
		c-0.168,0-0.332,0.031-0.492,0.093c-0.162,0.062-0.329,0.151-0.5,0.267l-0.204-0.419c0.403-0.271,0.821-0.406,1.257-0.406
		c0.43,0,0.766,0.109,1.005,0.328c0.239,0.22,0.358,0.535,0.358,0.946v1.131c0,0.14,0.059,0.211,0.174,0.215v0.562
		c-0.063,0.013-0.119,0.021-0.164,0.025c-0.046,0.004-0.092,0.006-0.135,0.006c-0.128,0-0.227-0.032-0.296-0.096
		c-0.07-0.064-0.113-0.146-0.129-0.246l-0.019-0.197c-0.139,0.184-0.312,0.324-0.518,0.422S65.521,17.446,65.287,17.446
		 M65.465,16.961c0.159,0,0.31-0.028,0.452-0.087c0.142-0.058,0.252-0.139,0.332-0.242c0.084-0.071,0.125-0.147,0.125-0.228v-0.413
		c-0.111-0.044-0.23-0.077-0.355-0.102c-0.125-0.023-0.248-0.035-0.368-0.035c-0.235,0-0.427,0.05-0.577,0.152
		c-0.149,0.102-0.225,0.235-0.225,0.403c0,0.155,0.058,0.286,0.174,0.393C65.138,16.908,65.287,16.961,65.465,16.961"/>
	<path fill="#6A90CA" d="M67.895,13.018h0.658v3.465c0,0.116,0.03,0.206,0.089,0.272c0.061,0.065,0.145,0.099,0.252,0.099
		c0.043,0,0.095-0.009,0.152-0.023c0.058-0.017,0.113-0.035,0.164-0.055l0.097,0.515c-0.097,0.044-0.21,0.079-0.341,0.104
		c-0.133,0.025-0.25,0.039-0.354,0.039c-0.228,0-0.404-0.062-0.529-0.186c-0.126-0.124-0.188-0.299-0.188-0.526V13.018z"/>
	<path fill="#6A90CA" d="M71.025,17.446c-0.213,0-0.408-0.043-0.588-0.129c-0.179-0.085-0.335-0.202-0.467-0.35
		c-0.131-0.147-0.234-0.32-0.308-0.518s-0.11-0.409-0.11-0.637c0-0.22,0.035-0.426,0.104-0.62c0.069-0.192,0.168-0.363,0.293-0.511
		c0.126-0.147,0.273-0.265,0.442-0.351c0.17-0.085,0.356-0.129,0.561-0.129c0.25,0,0.473,0.062,0.664,0.183
		c0.191,0.122,0.341,0.276,0.448,0.464v-1.831h0.658v3.591c0,0.075,0.013,0.129,0.039,0.161c0.025,0.031,0.073,0.05,0.14,0.054
		v0.562c-0.066,0.012-0.122,0.02-0.164,0.024c-0.041,0.004-0.076,0.006-0.104,0.006c-0.132,0-0.239-0.034-0.323-0.103
		c-0.084-0.067-0.13-0.155-0.137-0.264l-0.013-0.232c-0.116,0.195-0.273,0.35-0.473,0.461S71.267,17.446,71.025,17.446
		 M71.185,16.883c0.096,0,0.191-0.016,0.287-0.047c0.096-0.032,0.184-0.076,0.264-0.132c0.08-0.057,0.148-0.122,0.207-0.198
		c0.057-0.075,0.099-0.157,0.122-0.245v-0.819c-0.036-0.1-0.087-0.191-0.153-0.275c-0.064-0.084-0.14-0.155-0.224-0.216
		c-0.083-0.06-0.173-0.105-0.267-0.138c-0.094-0.031-0.188-0.048-0.283-0.048c-0.132,0-0.253,0.03-0.362,0.09
		c-0.11,0.061-0.204,0.14-0.284,0.239c-0.08,0.101-0.143,0.214-0.188,0.341c-0.046,0.129-0.069,0.26-0.069,0.396
		c0,0.144,0.025,0.279,0.074,0.407c0.051,0.127,0.119,0.239,0.207,0.335s0.188,0.172,0.303,0.228
		C70.931,16.856,71.054,16.883,71.185,16.883"/>
	<polygon fill="#6A90CA" points="25.839,19.122 25.839,23.369 25.163,23.369 25.163,21.497 23.021,21.497 23.021,23.369 
		22.351,23.369 22.351,19.122 23.021,19.122 23.021,20.898 25.163,20.898 25.163,19.122 	"/>
	<path fill="#6A90CA" d="M28.137,23.429c-0.248,0-0.47-0.044-0.667-0.132c-0.198-0.087-0.366-0.206-0.506-0.354
		c-0.139-0.146-0.247-0.319-0.323-0.518c-0.076-0.196-0.113-0.403-0.113-0.619c0-0.215,0.038-0.421,0.113-0.619
		c0.076-0.197,0.185-0.369,0.326-0.518c0.142-0.146,0.311-0.265,0.508-0.353c0.198-0.088,0.418-0.132,0.662-0.132
		c0.243,0,0.463,0.044,0.661,0.132s0.367,0.206,0.509,0.353c0.142,0.148,0.25,0.32,0.326,0.518c0.076,0.198,0.114,0.404,0.114,0.619
		c0,0.216-0.038,0.423-0.114,0.619c-0.076,0.198-0.185,0.371-0.326,0.518c-0.142,0.147-0.312,0.267-0.509,0.354
		C28.601,23.385,28.38,23.429,28.137,23.429 M27.204,21.813c0,0.152,0.024,0.292,0.072,0.42c0.048,0.127,0.114,0.238,0.197,0.332
		c0.084,0.093,0.183,0.167,0.296,0.221c0.113,0.054,0.236,0.081,0.368,0.081c0.131,0,0.254-0.027,0.368-0.081
		s0.212-0.129,0.296-0.224c0.083-0.096,0.149-0.208,0.197-0.336c0.048-0.127,0.072-0.267,0.072-0.419
		c0-0.147-0.024-0.286-0.072-0.415c-0.048-0.13-0.114-0.242-0.197-0.339c-0.084-0.096-0.183-0.17-0.296-0.224
		s-0.236-0.081-0.368-0.081c-0.128,0-0.249,0.028-0.362,0.084s-0.212,0.132-0.296,0.228c-0.083,0.096-0.15,0.208-0.2,0.337
		C27.229,21.527,27.204,21.667,27.204,21.813"/>
	<path fill="#6A90CA" d="M31.356,23.429c-0.327,0-0.574-0.106-0.742-0.32c-0.167-0.213-0.251-0.531-0.251-0.954V20.24h0.658v1.783
		c0,0.562,0.2,0.844,0.599,0.844c0.187,0,0.365-0.058,0.532-0.174c0.167-0.115,0.297-0.283,0.389-0.502V20.24h0.658v2.352
		c0,0.076,0.013,0.13,0.039,0.162c0.025,0.031,0.073,0.05,0.141,0.053v0.562c-0.068,0.013-0.124,0.021-0.168,0.024
		s-0.086,0.006-0.125,0.006c-0.12,0-0.222-0.032-0.305-0.099c-0.084-0.065-0.127-0.15-0.132-0.254l-0.012-0.312
		c-0.14,0.228-0.321,0.4-0.544,0.518C31.868,23.371,31.623,23.429,31.356,23.429"/>
	<path fill="#6A90CA" d="M35.233,23.429c-0.251,0-0.501-0.041-0.751-0.123c-0.25-0.081-0.463-0.198-0.643-0.35l0.263-0.419
		c0.188,0.136,0.374,0.238,0.557,0.309c0.183,0.069,0.371,0.104,0.562,0.104c0.195,0,0.35-0.038,0.463-0.114
		c0.114-0.075,0.171-0.184,0.171-0.323c0-0.131-0.063-0.228-0.191-0.287s-0.327-0.125-0.599-0.196
		c-0.195-0.053-0.363-0.103-0.502-0.149c-0.14-0.049-0.254-0.104-0.341-0.168c-0.088-0.063-0.151-0.138-0.191-0.222
		s-0.06-0.186-0.06-0.305c0-0.159,0.03-0.302,0.093-0.426c0.061-0.123,0.147-0.228,0.257-0.313c0.11-0.086,0.239-0.15,0.386-0.195
		c0.147-0.043,0.307-0.065,0.479-0.065c0.235,0,0.454,0.036,0.658,0.107c0.204,0.072,0.385,0.176,0.544,0.312L36.106,21
		c-0.291-0.231-0.6-0.348-0.927-0.348c-0.168,0-0.309,0.034-0.422,0.104c-0.113,0.07-0.17,0.181-0.17,0.332
		c0,0.064,0.012,0.118,0.036,0.162s0.063,0.081,0.117,0.113s0.124,0.061,0.209,0.087c0.085,0.026,0.192,0.055,0.32,0.087
		c0.212,0.052,0.394,0.104,0.548,0.155c0.152,0.052,0.279,0.113,0.379,0.183c0.101,0.069,0.174,0.152,0.222,0.245
		c0.048,0.094,0.072,0.207,0.072,0.339c0,0.299-0.113,0.535-0.339,0.708C35.926,23.342,35.62,23.429,35.233,23.429"/>
	<path fill="#6A90CA" d="M38.542,23.429c-0.243,0-0.465-0.043-0.664-0.129c-0.2-0.086-0.37-0.202-0.512-0.35
		s-0.251-0.319-0.329-0.515s-0.117-0.403-0.117-0.623c0-0.219,0.039-0.427,0.117-0.625c0.078-0.197,0.188-0.371,0.329-0.521
		s0.312-0.267,0.512-0.353c0.199-0.086,0.423-0.129,0.67-0.129c0.243,0,0.464,0.044,0.661,0.132s0.365,0.204,0.506,0.35
		c0.139,0.146,0.246,0.315,0.32,0.509c0.073,0.193,0.11,0.396,0.11,0.606c0,0.049-0.002,0.094-0.007,0.136
		c-0.003,0.042-0.007,0.076-0.012,0.104H37.62c0.013,0.14,0.045,0.266,0.099,0.377c0.055,0.111,0.124,0.208,0.21,0.29
		c0.086,0.083,0.184,0.145,0.293,0.188c0.11,0.044,0.225,0.065,0.345,0.065c0.088,0,0.174-0.011,0.26-0.032
		c0.086-0.022,0.164-0.054,0.236-0.096s0.135-0.093,0.191-0.153c0.057-0.06,0.1-0.125,0.132-0.196l0.562,0.161
		c-0.108,0.235-0.287,0.428-0.536,0.577S38.873,23.429,38.542,23.429 M39.493,21.569c-0.012-0.133-0.044-0.253-0.099-0.365
		c-0.054-0.112-0.123-0.207-0.207-0.284c-0.083-0.078-0.181-0.14-0.293-0.183c-0.111-0.044-0.229-0.066-0.353-0.066
		s-0.24,0.022-0.351,0.066c-0.109,0.043-0.206,0.104-0.289,0.183c-0.084,0.077-0.152,0.172-0.203,0.284
		c-0.053,0.112-0.084,0.232-0.097,0.365H39.493z"/>
	<path fill="#6A90CA" d="M42.095,21.215c0-0.255,0.046-0.51,0.138-0.763s0.227-0.48,0.404-0.683
		c0.177-0.201,0.394-0.363,0.649-0.486c0.255-0.124,0.544-0.187,0.867-0.187c0.387,0,0.718,0.086,0.993,0.258
		c0.275,0.171,0.482,0.395,0.622,0.669l-0.526,0.354c-0.06-0.128-0.132-0.235-0.216-0.323c-0.084-0.087-0.176-0.157-0.275-0.209
		s-0.203-0.088-0.311-0.11s-0.211-0.033-0.312-0.033c-0.224,0-0.419,0.045-0.586,0.134c-0.167,0.091-0.308,0.209-0.422,0.356
		c-0.114,0.148-0.2,0.313-0.258,0.497c-0.058,0.183-0.087,0.366-0.087,0.55c0,0.208,0.035,0.405,0.102,0.593
		c0.068,0.188,0.164,0.354,0.285,0.497s0.266,0.258,0.434,0.344s0.352,0.128,0.551,0.128c0.104,0,0.21-0.013,0.32-0.039
		c0.109-0.024,0.215-0.067,0.316-0.125s0.195-0.131,0.281-0.218c0.086-0.089,0.156-0.194,0.213-0.318l0.557,0.318
		c-0.068,0.158-0.164,0.3-0.287,0.421c-0.125,0.122-0.264,0.226-0.42,0.309c-0.154,0.084-0.32,0.147-0.493,0.191
		s-0.345,0.065-0.511,0.065c-0.3,0-0.573-0.063-0.82-0.191c-0.248-0.127-0.461-0.294-0.641-0.499c-0.18-0.206-0.318-0.438-0.418-0.7
		C42.146,21.753,42.095,21.487,42.095,21.215"/>
	<path fill="#6A90CA" d="M49.24,23.369h-0.658v-1.753c0-0.287-0.051-0.499-0.152-0.637c-0.103-0.138-0.25-0.207-0.44-0.207
		c-0.092,0-0.184,0.019-0.275,0.055s-0.179,0.086-0.261,0.152c-0.081,0.065-0.154,0.144-0.218,0.233s-0.112,0.188-0.144,0.296v1.86
		h-0.658v-4.367h0.658v1.867c0.119-0.216,0.282-0.383,0.488-0.503c0.205-0.12,0.429-0.18,0.672-0.18
		c0.195,0,0.356,0.035,0.482,0.104c0.125,0.07,0.227,0.162,0.302,0.278c0.076,0.116,0.129,0.251,0.159,0.404
		c0.029,0.153,0.045,0.316,0.045,0.488V23.369z"/>
	<path fill="#6A90CA" d="M50.896,23.429c-0.15,0-0.291-0.025-0.422-0.075c-0.129-0.05-0.24-0.118-0.334-0.206
		s-0.168-0.191-0.222-0.312c-0.054-0.119-0.081-0.249-0.081-0.389c0-0.147,0.032-0.281,0.096-0.401
		c0.064-0.119,0.154-0.223,0.272-0.311s0.257-0.155,0.419-0.203s0.34-0.072,0.535-0.072c0.147,0,0.293,0.013,0.438,0.039
		c0.143,0.026,0.272,0.061,0.389,0.104v-0.216c0-0.23-0.066-0.411-0.197-0.54c-0.133-0.13-0.322-0.195-0.568-0.195
		c-0.168,0-0.332,0.031-0.494,0.093s-0.328,0.15-0.5,0.267l-0.203-0.419c0.402-0.271,0.821-0.407,1.257-0.407
		c0.431,0,0.766,0.11,1.005,0.329c0.239,0.22,0.359,0.535,0.359,0.945v1.131c0,0.14,0.057,0.212,0.174,0.215v0.562
		c-0.064,0.012-0.119,0.021-0.166,0.024c-0.045,0.004-0.09,0.007-0.135,0.007c-0.127,0-0.225-0.033-0.295-0.097
		s-0.113-0.146-0.129-0.245l-0.018-0.197c-0.141,0.184-0.312,0.324-0.518,0.422C51.352,23.38,51.132,23.429,50.896,23.429
		 M51.076,22.945c0.16,0,0.311-0.029,0.451-0.087c0.143-0.059,0.254-0.14,0.334-0.243c0.082-0.071,0.125-0.147,0.125-0.227v-0.413
		c-0.111-0.044-0.23-0.077-0.356-0.102c-0.126-0.023-0.249-0.035-0.368-0.035c-0.234,0-0.428,0.05-0.578,0.152
		c-0.148,0.102-0.223,0.235-0.223,0.403c0,0.155,0.057,0.286,0.173,0.392S50.896,22.945,51.076,22.945"/>
	<path fill="#6A90CA" d="M55.258,20.808c-0.255,0.008-0.481,0.067-0.679,0.177s-0.339,0.267-0.422,0.47v1.914H53.5v-3.128h0.61
		v0.698c0.107-0.215,0.248-0.387,0.422-0.517c0.173-0.129,0.359-0.2,0.56-0.212h0.098c0.026,0,0.049,0.002,0.069,0.006V20.808z"/>
	<path fill="#6A90CA" d="M55.796,19.001h0.658v0.725h-0.658V19.001z M55.796,20.24h0.658v3.129h-0.658V20.24z"/>
	<path fill="#6A90CA" d="M59.045,23.208c-0.084,0.04-0.2,0.085-0.347,0.135c-0.148,0.05-0.305,0.075-0.473,0.075
		c-0.104,0-0.201-0.015-0.294-0.042c-0.091-0.028-0.172-0.07-0.241-0.125c-0.07-0.057-0.125-0.13-0.165-0.22
		c-0.04-0.089-0.06-0.197-0.06-0.326v-1.956h-0.414V20.24h0.414v-1.028h0.658v1.028h0.682v0.509h-0.682v1.747
		c0.008,0.112,0.043,0.192,0.104,0.242s0.138,0.075,0.23,0.075c0.091,0,0.179-0.016,0.263-0.048s0.146-0.058,0.186-0.077
		L59.045,23.208z"/>
	<path fill="#6A90CA" d="M59.56,19.001h0.658v0.725H59.56V19.001z M59.56,20.24h0.658v3.129H59.56V20.24z"/>
	<path fill="#6A90CA" d="M62.486,23.429c-0.243,0-0.465-0.043-0.664-0.129s-0.37-0.202-0.512-0.35s-0.252-0.319-0.329-0.515
		c-0.078-0.195-0.117-0.403-0.117-0.623c0-0.219,0.039-0.427,0.117-0.625c0.077-0.197,0.188-0.371,0.329-0.521
		s0.312-0.267,0.512-0.353s0.422-0.129,0.67-0.129c0.243,0,0.463,0.044,0.662,0.132c0.197,0.088,0.365,0.204,0.505,0.35
		s0.246,0.315,0.319,0.509c0.074,0.193,0.111,0.396,0.111,0.606c0,0.049-0.002,0.094-0.006,0.136
		c-0.005,0.042-0.008,0.076-0.012,0.104h-2.508c0.012,0.14,0.045,0.266,0.1,0.377c0.054,0.111,0.123,0.208,0.209,0.29
		c0.086,0.083,0.184,0.145,0.293,0.188s0.225,0.065,0.344,0.065c0.088,0,0.175-0.011,0.261-0.032
		c0.085-0.022,0.165-0.054,0.236-0.096s0.136-0.093,0.191-0.153c0.056-0.06,0.099-0.125,0.132-0.196l0.562,0.161
		c-0.107,0.235-0.287,0.428-0.535,0.577C63.107,23.354,62.816,23.429,62.486,23.429 M63.437,21.569
		c-0.012-0.133-0.045-0.253-0.098-0.365c-0.055-0.112-0.123-0.207-0.207-0.284c-0.084-0.078-0.182-0.14-0.293-0.183
		c-0.112-0.044-0.23-0.066-0.354-0.066c-0.124,0-0.24,0.022-0.35,0.066c-0.11,0.043-0.207,0.104-0.291,0.183
		c-0.083,0.077-0.151,0.172-0.203,0.284s-0.084,0.232-0.096,0.365H63.437z"/>
	<path fill="#6A90CA" d="M65.824,23.429c-0.25,0-0.501-0.041-0.75-0.123c-0.25-0.081-0.464-0.198-0.644-0.35l0.264-0.419
		c0.188,0.136,0.372,0.238,0.556,0.309c0.184,0.069,0.371,0.104,0.562,0.104c0.195,0,0.35-0.038,0.465-0.114
		c0.113-0.075,0.17-0.184,0.17-0.323c0-0.131-0.064-0.228-0.191-0.287c-0.128-0.06-0.327-0.125-0.599-0.196
		c-0.196-0.053-0.363-0.103-0.503-0.149c-0.139-0.049-0.254-0.104-0.341-0.168c-0.088-0.063-0.151-0.138-0.191-0.222
		s-0.06-0.186-0.06-0.305c0-0.159,0.031-0.302,0.093-0.426c0.062-0.123,0.147-0.228,0.257-0.313s0.238-0.15,0.387-0.195
		c0.147-0.043,0.307-0.065,0.479-0.065c0.234,0,0.455,0.036,0.658,0.107c0.203,0.072,0.385,0.176,0.545,0.312L66.698,21
		c-0.291-0.231-0.601-0.348-0.927-0.348c-0.168,0-0.309,0.034-0.422,0.104s-0.172,0.181-0.172,0.332
		c0,0.064,0.013,0.118,0.037,0.162c0.023,0.044,0.062,0.081,0.116,0.113s0.124,0.061,0.21,0.087s0.191,0.055,0.32,0.087
		c0.211,0.052,0.393,0.104,0.547,0.155c0.153,0.052,0.279,0.113,0.38,0.183c0.1,0.069,0.174,0.152,0.222,0.245
		c0.047,0.094,0.071,0.207,0.071,0.339c0,0.299-0.112,0.535-0.339,0.708C66.517,23.342,66.21,23.429,65.824,23.429"/>
	<path fill="#6A90CA" d="M67.921,20.017c0.296,0,0.531,0.239,0.531,0.539c0,0.305-0.235,0.542-0.533,0.542
		c-0.295,0-0.534-0.237-0.534-0.542c0-0.3,0.239-0.539,0.534-0.539H67.921z M67.919,20.101c-0.237,0-0.432,0.203-0.432,0.455
		c0,0.257,0.194,0.458,0.434,0.458c0.24,0.003,0.433-0.201,0.433-0.455c0-0.255-0.192-0.458-0.433-0.458H67.919z M67.818,20.871
		h-0.095v-0.602c0.05-0.008,0.099-0.015,0.171-0.015c0.09,0,0.15,0.02,0.186,0.046c0.037,0.025,0.056,0.067,0.056,0.124
		c0,0.08-0.053,0.128-0.117,0.146v0.005c0.053,0.01,0.089,0.058,0.101,0.146c0.015,0.093,0.029,0.129,0.039,0.148h-0.102
		c-0.014-0.02-0.029-0.074-0.041-0.153c-0.014-0.077-0.053-0.105-0.129-0.105h-0.068V20.871z M67.818,20.537h0.07
		c0.08,0,0.146-0.028,0.146-0.104c0-0.052-0.038-0.104-0.146-0.104c-0.031,0-0.053,0.003-0.07,0.005V20.537z"/>
</g>
</svg>
